<svg xmlns="http://www.w3.org/2000/svg" xmlns:xlink="http://www.w3.org/1999/xlink" xmlns:lucid="lucid" width="3161" height="2041"><g transform="translate(340.5 600.5)" lucid:page-tab-id="0_0"><path d="M-500-1000h3500v2500H-500z" fill="#fff"/><path d="M-56.24-140H2500v1480H-56.24z" stroke="#248814" stroke-width="2" fill-opacity="0"/><path d="M-56.24-140h56v56h-56v-56z" stroke="#fff" stroke-opacity="0" fill="#248814"/><path d="M-24.48-111.7h-1.18v-1.1c-.12-1.73-1.48-3.07-3.2-3.2-1.9-.13-3.54 1.3-3.67 3.2v1.07h-1.18c-.45 0-.8.36-.8.8v6.13c0 .44.34.8.8.8h9.22c.44 0 .8-.36.8-.8v-6.1c0-.43-.36-.8-.8-.8zm-6.4-1.06c.1-1.02 1-1.77 2-1.67.9.08 1.58.77 1.67 1.67v1.06h-3.73zm5.65 7.08h-7.68v-4.42h7.62z" stroke="#fff" stroke-opacity="0" fill="#fff"/><path d="M-13.97-114.25c-.1-2.45-1.58-4.48-3.87-5.3-1.58-.47-3.16-.14-4.4.9-.68-1.45-1.47-2.6-2.6-3.76-3.24-3.36-7.94-4.3-12.18-2.4-4.04 1.9-6.4 5.63-6.54 10.05v.7c-3.4.97-5.66 4.08-5.5 7.65v.63c.38 4.28 3.92 7.52 8.2 7.47h26s7.42-.64 7.42-8.1c.04-3.9-2.66-7.2-6.53-7.85zm-.96 14.38h-25.92c-3.46.06-6.3-2.52-6.58-5.96v-.52c-.16-3.05 1.92-5.7 4.9-6.3.4-.12.64-.48.6-.9-.05-.4-.05-.73 0-1.14.08-3.78 2.12-6.94 5.53-8.6 1.25-.56 2.4-.8 3.83-.84 2.62.08 4.87 1.04 6.7 2.94 1.25 1.3 2.04 2.6 2.62 4.3.04.15.12.28.25.37.37.27.87.2 1.12-.17.83-1.18 2.25-1.67 3.62-1.3 1.8.72 2.87 2.4 2.83 4.32-.08.4.2.83.63.9 3.57.36 6.2 3.55 5.82 7.12-.3 3.13-2.7 5.52-5.82 5.85z" stroke="#fff" stroke-opacity="0" fill="#fff"/><use xlink:href="#a" transform="matrix(1,0,0,1,14.759178895694731,-120) translate(0 21.333333333333336)"/><use xlink:href="#b" transform="matrix(1,0,0,1,14.759178895694731,-120) translate(0 46.22222222222222)"/><path d="M-320-572a8 8 0 0 1 8-8h3104a8 8 0 0 1 8 8v1984a8 8 0 0 1-8 8H-312a8 8 0 0 1-8-8z" stroke="#232f3e" fill="#fff" fill-opacity="0"/><path d="M-320-580h56v56h-56v-56z" stroke="#fff" stroke-opacity="0" fill="#232f3e"/><path d="M-279.12-538.78h-25c-4.13.05-7.57-3.1-7.9-7.2v-.64c-.15-3.4 1.97-6.38 5.25-7.36v-.66c.12-4.22 2.44-7.75 6.24-9.57 4.13-1.86 8.73-.96 11.8 2.3 1.1 1.1 1.85 2.2 2.45 3.6 1.2-1 2.72-1.32 4.24-.9 2.24.8 3.68 2.74 3.76 5.1 3.68.65 6.32 3.8 6.28 7.56 0 7.07-7.04 7.73-7.12 7.76zm-26.7-13.88c-2.83.6-4.75 3.14-4.6 6.04v.53c.3 3.33 3.1 5.84 6.4 5.76h24.98c3.04-.3 5.4-2.64 5.68-5.7.28-3.43-2.24-6.5-5.68-6.78-.44-.05-.72-.44-.64-.87.08-1.83-1-3.44-2.72-4.13-1.32-.37-2.64.13-3.44 1.24-.2.25-.44.38-.76.33-.28-.05-.48-.24-.6-.5-.6-1.6-1.4-2.85-2.6-4.04-2.7-2.8-6.6-3.6-10.13-2-3.24 1.6-5.2 4.63-5.32 8.24-.04.4-.04.74 0 1.14.04.4-.2.76-.6.84z" stroke="#fff" stroke-opacity="0" fill="#fff"/><use xlink:href="#c" transform="matrix(1,0,0,1,-249,-560) translate(1488.3703703703704 21.333333333333336)"/><use xlink:href="#d" transform="matrix(1,0,0,1,-249,-560) translate(1556.3703703703704 21.333333333333336)"/><path d="M-201.9 521.4v36.66a12 12 0 0 0 12 12h73.52" stroke="#666" fill="none"/><path d="M-201.42 521.42h-.95v-.5h.95z" stroke="#666" stroke-width=".05" fill="#666"/><path d="M-101.62 570.06l-14.26 4.63v-9.28z" stroke="#666" fill="#666"/><path d="M640 110a30 30 0 0 1 30-30h260a30 30 0 0 1 30 30v1000a30 30 0 0 1-30 30H670a30 30 0 0 1-30-30z" fill-opacity="0"/><path d="M648.06 89.64l.73-.85.84-.74m9.43-5.9l1.66-.7 4.58-1.1L670 80h15.48m15.47 0h3.1m15.47 0h30.96m15.47 0h3.1m15.47 0h30.96m15.47 0h3.1m15.47 0h30.96m15.47 0h3.1m15.47 0H930l4.7.37 4.57 1.1 1.66.7m9.43 5.9l.85.72.74.84m5.9 9.43l.7 1.66 1.1 4.58.36 4.7v14.88m0 14.88v2.98m0 14.88v29.76m0 14.88v2.98m0 14.88v29.76m0 14.88v2.98m0 14.88v29.76m0 14.88v2.98m0 14.88v29.76m0 14.88v2.98m0 14.88v29.76m0 14.88v2.98m0 14.88v29.76m0 14.88v2.98m0 14.88v29.76m0 14.88v2.98m0 14.88v29.76m0 14.88v2.98m0 14.88v29.76m0 14.88v2.98m0 14.88v29.76m0 14.88v2.98m0 14.88v29.76m0 14.88v2.98m0 14.88v29.76m0 14.88v2.98m0 14.88v29.76m0 14.88v2.98m0 14.88v29.76m0 14.88v2.98m0 14.88v29.76m0 14.88v2.98m0 14.88V1110l-.37 4.7-1.1 4.57-.68 1.66m-5.9 9.43l-.74.85-.84.74m-9.43 5.9l-1.66.7-4.58 1.1-4.7.36h-15.48m-15.47 0h-3.1m-15.47 0h-30.96m-15.47 0h-3.1m-15.47 0h-30.96m-15.47 0h-3.1m-15.47 0h-30.96m-15.47 0h-3.1m-15.47 0H670l-4.7-.37-4.57-1.1-1.66-.68m-9.43-5.9l-.85-.74-.74-.84m-5.9-9.43l-.7-1.66-1.1-4.58-.36-4.7v-14.88m0-14.88v-2.98m0-14.88v-29.76m0-14.88v-2.98m0-14.88v-29.76m0-14.88v-2.98m0-14.88v-29.76m0-14.88v-2.98m0-14.88v-29.76m0-14.88v-2.98m0-14.88v-29.76m0-14.88v-2.98m0-14.88v-29.76m0-14.88v-2.98m0-14.88v-29.76m0-14.88v-2.98m0-14.88v-29.76m0-14.88v-2.98m0-14.88v-29.76m0-14.88v-2.98m0-14.88v-29.76m0-14.88v-2.98m0-14.88v-29.76m0-14.88v-2.98m0-14.88v-29.76m0-14.88v-2.98m0-14.88v-29.76m0-14.88v-2.98m0-14.88v-29.76m0-14.88v-2.98m0-14.88v-29.76m0-14.88v-2.98m0-14.88V110l.37-4.7 1.1-4.57.68-1.66" stroke="#474747" stroke-width="3" fill="none"/><use xlink:href="#e" transform="matrix(1,0,0,1,640,1110) translate(66.26543209876544 11.11111111111111)"/><use xlink:href="#f" transform="matrix(1,0,0,1,640,1110) translate(118.11728395061729 11.11111111111111)"/><use xlink:href="#g" transform="matrix(1,0,0,1,640,1110) translate(197.00617283950618 11.11111111111111)"/><path d="M1365 110a30 30 0 0 1 30-30h270a30 30 0 0 1 30 30v1000a30 30 0 0 1-30 30h-270a30 30 0 0 1-30-30z" fill-opacity="0"/><path d="M1373.06 89.64l.73-.85.84-.74m9.43-5.9l1.66-.7 4.58-1.1 4.7-.36h16.07m16.07 0h3.22m16.07 0h32.14m16.07 0h3.22m16.07 0h32.14m16.07 0h3.22m16.07 0h32.14m16.07 0h3.22m16.07 0H1665l4.7.37 4.57 1.1 1.66.7m9.43 5.9l.85.72.74.84m5.9 9.43l.7 1.66 1.1 4.58.36 4.7v14.88m0 14.88v2.98m0 14.88v29.76m0 14.88v2.98m0 14.88v29.76m0 14.88v2.98m0 14.88v29.76m0 14.88v2.98m0 14.88v29.76m0 14.88v2.98m0 14.88v29.76m0 14.88v2.98m0 14.88v29.76m0 14.88v2.98m0 14.88v29.76m0 14.88v2.98m0 14.88v29.76m0 14.88v2.98m0 14.88v29.76m0 14.88v2.98m0 14.88v29.76m0 14.88v2.98m0 14.88v29.76m0 14.88v2.98m0 14.88v29.76m0 14.88v2.98m0 14.88v29.76m0 14.88v2.98m0 14.88v29.76m0 14.88v2.98m0 14.88v29.76m0 14.88v2.98m0 14.88V1110l-.37 4.7-1.1 4.57-.68 1.66m-5.9 9.43l-.74.85-.84.74m-9.43 5.9l-1.66.7-4.58 1.1-4.7.36h-16.07m-16.07 0h-3.22m-16.07 0h-32.14m-16.07 0h-3.22m-16.07 0h-32.14m-16.07 0h-3.22m-16.07 0h-32.14m-16.07 0h-3.22m-16.07 0H1395l-4.7-.37-4.57-1.1-1.66-.68m-9.43-5.9l-.85-.74-.74-.84m-5.9-9.43l-.7-1.66-1.1-4.58-.36-4.7v-14.88m0-14.88v-2.98m0-14.88v-29.76m0-14.88v-2.98m0-14.88v-29.76m0-14.88v-2.98m0-14.88v-29.76m0-14.88v-2.98m0-14.88v-29.76m0-14.88v-2.98m0-14.88v-29.76m0-14.88v-2.98m0-14.88v-29.76m0-14.88v-2.98m0-14.88v-29.76m0-14.88v-2.98m0-14.88v-29.76m0-14.88v-2.98m0-14.88v-29.76m0-14.88v-2.98m0-14.88v-29.76m0-14.88v-2.98m0-14.88v-29.76m0-14.88v-2.98m0-14.88v-29.76m0-14.88v-2.98m0-14.88v-29.76m0-14.88v-2.98m0-14.88v-29.76m0-14.88v-2.98m0-14.88v-29.76m0-14.88v-2.98m0-14.88V110l.37-4.7 1.1-4.57.68-1.66" stroke="#474747" stroke-width="3" fill="none"/><use xlink:href="#e" transform="matrix(1,0,0,1,1365,1110) translate(71.26543209876544 11.11111111111111)"/><use xlink:href="#f" transform="matrix(1,0,0,1,1365,1110) translate(123.11728395061729 11.11111111111111)"/><use xlink:href="#g" transform="matrix(1,0,0,1,1365,1110) translate(202.00617283950618 11.11111111111111)"/><path d="M20-52a8 8 0 0 1 8-8h2404a8 8 0 0 1 8 8v444a8 8 0 0 1-8 8H28a8 8 0 0 1-8-8z" fill="#fff" fill-opacity="0"/><path d="M21.36-56.44l.17-.26.8-.96.97-.8.27-.18m2.87-1.2l.3-.06L28-60h2m4 0h3.98m4 0h4m3.98 0h4m4 0h3.98m4 0h4m3.98 0h4m4 0h3.98m4 0h4m3.98 0h4m4 0h3.98m4 0h4m3.98 0h4m4 0h3.98m4 0h4m3.98 0h4m4 0h3.98m4 0h4m3.98 0h4m4 0h3.98m4 0h4m3.98 0h4m4 0h3.98m4 0h4m3.98 0h4m4 0h3.98m4 0h4m4 0h3.98m4 0h4m3.98 0h4m4 0h3.98m4 0h3.98m4 0h4m4 0h3.98m4 0h4m3.98 0h4m3.98 0h4m4 0h4m3.98 0h4m4 0h3.98m4 0h3.98m4 0h4m4 0h3.98m4 0h4m3.98 0h4m3.98 0h4m4 0h4m3.98 0h4m4 0h3.98m4 0h4m3.98 0h4m4 0h3.98m4 0h4m3.98 0h4m4 0h3.98m4 0h4m3.98 0h4m4 0h3.98m4 0h4m3.98 0h4m4 0h3.98m4 0h4m3.98 0h4m4 0h3.98m4 0h4m3.98 0h4m4 0h3.98m4 0h4m3.98 0h4m4 0h3.98m4 0h4m3.98 0h4m4 0h3.98m4 0h4m3.98 0h4m4 0H629m4 0h4m3.98 0h4m4 0h3.98m4 0h4m3.98 0h4m4 0h3.98m4 0h4m3.98 0h4m4 0h3.98m4 0h4m3.98 0h4m4 0h3.98m4 0h4m3.98 0h4m4 0h3.98m4 0h4m3.98 0h4m4 0h3.98m4 0h4m3.98 0h4m4 0h3.98m4 0h4m3.98 0h4m4 0h3.98m4 0h4m3.98 0h4m4 0h3.98m4 0h4m3.98 0h4m4 0h3.98m4 0h4m3.98 0h4m4 0h3.98m4 0h4m3.98 0h4m4 0h3.98m4 0h4m3.98 0h4m4 0h3.98m4 0h4m3.98 0h4m4 0h3.98m4 0h4m3.98 0h4m4 0h3.98m4 0h4m3.98 0h4m4 0h3.98m4 0h4m3.98 0h4m4 0h3.98m4 0h4m3.98 0h4m4 0h3.98m4 0h4m3.98 0h4m4 0h3.98m4 0h4m3.98 0h4m4 0h3.98m4 0h4m3.98 0h4m4 0h3.98m4 0h4m3.98 0h4m4 0h3.98m4 0h4m3.98 0h4m4 0h3.98m4 0h4m3.98 0h4m4 0h3.98m4 0h4m3.98 0h4m4 0h3.98m4 0h4m3.98 0h4m4 0h3.98m4 0h4m3.98 0h4m4 0h3.98m4 0h4m3.98 0h4m4 0h3.98m4 0h4m3.98 0h4m4 0h3.98m4 0h4m3.98 0h4m4 0h3.98m4 0h4m3.98 0h4m4 0h3.98m4 0h4m3.98 0h4m4 0h3.98m4 0h4m3.98 0h4m4 0h3.98m4 0h4m3.98 0h4m4 0h3.98m4 0h4m3.98 0h4m4 0h4m3.98 0h4m4 0h3.98m4 0h4m3.98 0h4m4 0h3.98m4 0h4m3.98 0h4m4 0h3.98m4 0h3.98m4 0h4m3.98 0h4m4 0h3.98m4 0h4m3.98 0h4m4 0h3.98m4 0h4m3.98 0h4m4 0h3.98m4 0h4m4 0h3.98m4 0h4m3.98 0h4m4 0h3.98m4 0h4m3.98 0h4m4 0h3.98m4 0h4m3.98 0h4m4 0h3.98m4 0h4m3.98 0h4m4 0h3.98m4 0h4m3.98 0h4m4 0h3.98m4 0h4m3.98 0h4m4 0h3.98m4 0h4m3.98 0h4m4 0h3.98m4 0h4m3.98 0h4m4 0h3.98m4 0h4m3.98 0h4m4 0h3.98m4 0h4m3.98 0h4m4 0h3.98m4 0h4m3.98 0h4m4 0h3.98m4 0h4m3.98 0h4m4 0h3.98m4 0h4m3.98 0h4m4 0h3.98m4 0h4m3.98 0h4m4 0h3.98m4 0h4m3.98 0h4m4 0h3.98m4 0h4m3.98 0h4m4 0h3.98m4 0h4m3.98 0h4m4 0h3.98m4 0h4m3.98 0h4m4 0h3.98m4 0h4m3.98 0h4m4 0h3.98m4 0h4m3.98 0h4m4 0h3.98m4 0h4m3.98 0h4m4 0h3.98m4 0h4m3.98 0h4m4 0h3.98m4 0h4m3.98 0h4m4 0h3.98m4 0h4m3.98 0h4m4 0h3.98m4 0h4m3.98 0h4m4 0h3.98m4 0h4m3.98 0h4m4 0h3.98m4 0h4m3.98 0h4m4 0h3.98m4 0h4m3.98 0h4m4 0h3.98m4 0h4m3.98 0h4m4 0h3.98m4 0h4m3.98 0h4m4 0h3.98m4 0h4m3.98 0h4m4 0h3.98m4 0h4m3.98 0h4m4 0h3.98m4 0h4m3.98 0h4m4 0h3.98m4 0h4m3.98 0h2l1.25.1.3.07m2.88 1.2l.27.16.96.8.8.97.18.27m1.2 2.87l.06.3.1 1.26v1.98m0 3.97v3.96m0 3.98v3.96m0 3.96v3.97m0 3.96v3.97m0 3.96v3.96m0 3.97v3.95m0 3.97v3.96m0 3.97v3.96m0 3.97v3.97m0 3.96v3.97m0 3.96v3.97m0 3.96v3.97m0 3.96v3.95m0 3.97v3.96m0 3.97v3.96m0 3.97v3.97m0 3.96v3.97m0 3.96v3.97m0 3.96v3.97m0 3.96v3.95m0 3.97v3.96m0 3.97v3.96m0 3.97v3.97m0 3.96v3.97m0 3.96v3.97m0 3.96v3.97m0 3.96v3.95m0 3.97v3.96m0 3.97v3.96m0 3.97v3.97m0 3.96v3.97m0 3.96v3.97m0 3.96v3.97m0 3.96v3.95m0 3.97v3.96m0 3.97v3.96m0 3.97v3.97m0 3.96v3.97m0 3.96v3.97m0 3.96v3.96m0 3.97v3.95m0 3.97v3.96m0 3.97v3.96m0 3.98v3.96m0 3.96v3.97m0 3.96v3.97m0 3.96v3.96m0 3.97v3.95m0 3.97v3.96m0 3.97v3.96m0 3.98v3.96m0 3.96v3.97m0 3.96v3.97m0 3.96v3.96m0 3.97v3.95m0 3.97V392l-.1 1.25-.07.3m-1.2 2.88l-.16.27-.8.96-.97.8-.26.18m-2.88 1.2l-.3.06-1.26.1h-2m-4 0h-3.98m-4 0h-4m-3.98 0h-4m-4 0h-3.98m-4 0h-4m-3.98 0h-4m-4 0h-3.98m-4 0h-4m-3.98 0h-4m-4 0h-3.98m-4 0h-4m-3.98 0h-4m-4 0h-3.98m-4 0h-4m-3.98 0h-4m-4 0h-3.98m-4 0h-4m-3.98 0h-4m-4 0h-3.98m-4 0h-4m-3.98 0h-4m-4 0h-3.98m-4 0h-4m-3.98 0h-4m-4 0h-3.98m-4 0h-4m-4 0h-3.98m-4 0h-4m-3.98 0h-4m-4 0h-3.98m-4 0h-4m-3.98 0h-4m-4 0h-3.98m-4 0h-4m-3.98 0h-4m-4 0h-3.98m-4 0h-4m-3.98 0h-4m-4 0h-3.98m-4 0h-4m-3.98 0h-4m-4 0h-3.98m-4 0h-4m-3.98 0h-4m-4 0h-3.98m-4 0h-4m-3.98 0h-4m-3.98 0h-4m-4 0h-4m-3.98 0h-4m-4 0h-3.98m-4 0h-4m-3.98 0h-4m-4 0h-3.98m-4 0h-4m-3.98 0h-4m-4 0h-3.98m-4 0h-4m-3.98 0h-4m-4 0h-3.98m-4 0h-4m-3.98 0h-4m-4 0h-3.98m-4 0h-4m-3.98 0h-4m-4 0h-3.98m-4 0h-4m-3.98 0h-4m-4 0h-3.98m-4 0h-4m-3.98 0h-4m-4 0h-3.98m-4 0h-4m-3.98 0h-4m-4 0H1831m-4 0h-4m-3.98 0h-4m-4 0h-3.98m-4 0h-4m-3.98 0h-4m-4 0h-3.98m-4 0h-4m-3.98 0h-4m-4 0h-3.98m-4 0h-4m-3.98 0h-4m-4 0h-3.98m-4 0h-4m-3.98 0h-4m-4 0h-3.98m-4 0h-4m-3.98 0h-4m-4 0h-3.98m-4 0h-4m-3.98 0h-4m-4 0h-3.98m-4 0h-4m-3.98 0h-4m-4 0h-3.98m-4 0h-4m-3.98 0h-4m-4 0h-3.98m-4 0h-4m-3.98 0h-4m-4 0h-3.98m-4 0h-4m-3.98 0h-4m-4 0h-3.98m-4 0h-4m-3.98 0h-4m-4 0h-3.98m-4 0h-4m-3.98 0h-4m-4 0h-3.98m-4 0h-4m-3.98 0h-4m-4 0h-3.98m-4 0h-4m-3.98 0h-4m-4 0h-3.98m-4 0h-4m-3.98 0h-4m-4 0h-3.98m-4 0h-4m-3.98 0h-4m-4 0h-3.98m-4 0h-4m-3.98 0h-4m-4 0h-3.98m-4 0h-4m-3.98 0h-4m-4 0h-3.98m-4 0h-4m-3.98 0h-4m-4 0h-3.98m-4 0h-4m-3.98 0h-4m-4 0h-3.98m-4 0h-4m-3.98 0h-4m-4 0h-3.98m-4 0h-4m-3.98 0h-4m-4 0h-3.98m-4 0h-4m-3.98 0h-4m-4 0h-3.98m-4 0h-4m-3.98 0h-4m-4 0H1232m-4 0h-4m-3.98 0h-4m-4 0h-3.98m-4 0h-4m-3.98 0h-4m-4 0h-3.98m-4 0h-4m-3.98 0h-4m-4 0h-3.98m-4 0h-4m-3.98 0h-4m-4 0h-3.98m-4 0h-4m-3.98 0h-4m-4 0h-3.98m-4 0h-4m-3.98 0h-4m-4 0h-3.98m-4 0h-4m-3.98 0h-4m-4 0h-3.98m-4 0h-4m-3.98 0h-4m-4 0h-3.98m-4 0h-4m-3.98 0h-4m-4 0h-4m-3.98 0h-4m-4 0h-3.98m-4 0h-4m-3.98 0h-4m-4 0h-3.98m-4 0h-4m-3.98 0h-4m-4 0h-3.98m-4 0h-4m-3.98 0h-4m-4 0h-3.98m-4 0h-4m-3.98 0h-4m-4 0h-3.98m-4 0h-4m-3.98 0h-4m-3.98 0h-4m-4 0h-4m-3.98 0h-4m-4 0h-3.98m-4 0h-4m-3.98 0h-4m-4 0h-3.98m-4 0h-4m-3.98 0h-4m-4 0h-3.98m-4 0h-4m-3.98 0h-4m-4 0h-3.98m-4 0h-4m-3.98 0h-4m-4 0h-3.98m-4 0h-4m-3.98 0h-4m-4 0h-3.98m-4 0h-4m-3.98 0h-4m-4 0h-3.98m-4 0h-4m-3.98 0h-4m-4 0h-3.98m-4 0h-4m-3.98 0h-4m-4 0h-3.98m-4 0h-4m-3.98 0h-4m-4 0H641m-4 0h-4m-3.98 0h-4m-4 0h-3.98m-4 0h-4m-3.98 0h-4m-4 0h-3.98m-4 0h-4m-3.98 0h-4m-4 0h-3.98m-4 0h-4m-3.98 0h-4m-4 0h-3.98m-4 0h-4m-3.98 0h-4m-4 0h-3.98m-4 0h-4m-3.98 0h-4m-4 0h-3.98m-4 0h-4m-3.98 0h-4m-4 0h-3.98m-4 0h-4m-3.98 0h-4m-4 0h-3.98m-4 0h-4m-3.98 0h-4m-4 0h-3.98m-4 0h-4m-3.98 0h-4m-4 0h-3.98m-4 0h-4m-3.98 0h-4m-4 0h-3.98m-4 0h-4m-3.98 0h-4m-4 0h-3.98m-4 0h-4m-3.98 0h-4m-4 0h-3.98m-4 0h-4m-3.98 0h-4m-4 0h-3.98m-4 0h-4m-3.98 0h-4m-4 0h-3.98m-4 0h-4m-3.98 0h-4m-4 0h-3.98m-4 0h-4m-3.98 0h-4m-4 0h-3.98m-4 0h-4m-3.98 0h-4m-4 0h-3.98m-4 0h-4m-3.98 0h-4m-4 0h-3.98m-4 0h-4m-3.98 0h-4m-4 0h-3.98m-4 0h-4m-3.98 0h-4m-4 0h-3.98m-4 0h-4m-3.98 0h-4m-4 0h-3.98m-4 0h-4m-3.98 0h-4m-4 0H89.9m-4 0h-4m-3.98 0h-4m-4 0h-3.98m-4 0h-4m-3.98 0h-4m-4 0H42m-4 0h-4M30 400h-2l-1.25-.1-.3-.07m-2.88-1.2l-.27-.16-.96-.8-.8-.97-.18-.26m-1.2-2.88l-.06-.3L20 392v-1.98m0-3.97v-3.96m0-3.98v-3.96m0-3.96v-3.97m0-3.96v-3.97m0-3.96v-3.96m0-3.97v-3.95m0-3.97v-3.96m0-3.97v-3.96m0-3.98v-3.96m0-3.96v-3.97m0-3.96v-3.97m0-3.96v-3.96m0-3.97v-3.95m0-3.97v-3.96m0-3.97v-3.96m0-3.98v-3.96m0-3.96v-3.97m0-3.96v-3.97m0-3.96v-3.97m0-3.96v-3.95m0-3.97v-3.96m0-3.97v-3.96m0-3.97v-3.97m0-3.96v-3.97m0-3.96v-3.97m0-3.96v-3.97m0-3.96v-3.95m0-3.97v-3.96m0-3.97v-3.96m0-3.97v-3.97m0-3.96v-3.97m0-3.96v-3.97m0-3.96v-3.97m0-3.96v-3.95m0-3.97v-3.96m0-3.97v-3.96m0-3.97v-3.97m0-3.96v-3.97m0-3.96V80.8m0-3.96v-3.97m0-3.96v-3.95m0-3.97v-3.96m0-3.97V49.1m0-3.98v-3.96m0-3.96v-3.97m0-3.96V25.3m0-3.96v-3.96m0-3.97V9.46m0-3.97V1.52m0-3.97V-6.4m0-3.97v-3.97m0-3.96v-3.97m0-3.96v-3.97m0-3.96v-3.97m0-3.96v-3.95m0-3.97V-52l.1-1.25.07-.3" stroke="#147eba" fill="none"/><use xlink:href="#h" transform="matrix(1,0,0,1,20,-40) translate(1120.2777777777778 17.77777777777778)"/><use xlink:href="#i" transform="matrix(1,0,0,1,20,-40) translate(1230.6481481481483 17.77777777777778)"/><use xlink:href="#j" transform="matrix(1,0,0,1,20,-40) translate(1287.3765432098767 17.77777777777778)"/><path d="M100 28a8 8 0 0 1 8-8h344a8 8 0 0 1 8 8v284a8 8 0 0 1-8 8H108a8 8 0 0 1-8-8z" fill="#248814" fill-opacity=".13"/><path d="M100 20h56v56h-56V20z" stroke="#fff" stroke-opacity="0" fill="#248814"/><path d="M143.38 42.18c-.15-.17-.34-.25-.56-.25h-5.15v-5.58c-.03-2.54-.96-4.7-2.84-6.4-1.9-1.84-4.15-2.75-6.77-2.75-2.65 0-4.9.83-6.8 2.62-1.9 1.7-2.87 3.87-2.9 6.4v5.66h-5.15c-.24 0-.43.1-.58.25-.16.17-.22.34-.22.6V68c0 .43.34.8.8.8h29.6c.46 0 .8-.37.8-.8V42.73c0-.2-.06-.38-.22-.54zm-23.46-5.9c.03-2.13.8-3.88 2.37-5.3 1.6-1.5 3.52-2.2 5.73-2.2 2.22 0 4.12.75 5.7 2.25 1.54 1.4 2.32 3.2 2.32 5.32v5.58H119.9zm22.1 30.94h-28.03v-23.7h28z" stroke="#fff" stroke-opacity="0" fill="#fff"/><path d="M127.2 57.3v6.25h1.6v-6.23c2.13-.4 3.62-2.2 3.63-4.35 0-2.43-1.97-4.4-4.4-4.43-2.2-.03-4.06 1.5-4.44 3.68-.42 2.4 1.2 4.68 3.6 5.1zm.82-7.15c.78 0 1.44.27 2 .83.54.55.82 1.2.8 2 .03 1.54-1.2 2.8-2.74 2.8h-.06c-1.56.13-2.92-1.04-3.04-2.6-.12-1.56 1.05-2.93 2.6-3.03.16-.02.28-.02.44 0z" stroke="#fff" stroke-opacity="0" fill="#fff"/><use xlink:href="#k" transform="matrix(1,0,0,1,171,40) translate(0 14.4)"/><use xlink:href="#l" transform="matrix(1,0,0,1,171,40) translate(53.900000000000006 14.4)"/><path d="M580 20h434.5v300H580z" fill="#147eba" fill-opacity=".13"/><path d="M580 20h56v56h-56V20z" stroke="#fff" stroke-opacity="0" fill="#147eba"/><path d="M623.38 42.18c-.15-.17-.34-.25-.56-.25h-5.15v-5.58c-.03-2.54-.96-4.7-2.84-6.4-1.9-1.84-4.15-2.75-6.77-2.75-2.65 0-4.9.83-6.8 2.62-1.9 1.7-2.87 3.87-2.9 6.4v5.66h-5.15c-.24 0-.43.1-.58.25-.16.17-.22.34-.22.6V68c0 .43.34.8.8.8h29.6c.46 0 .8-.37.8-.8V42.73c0-.2-.06-.38-.22-.54zm-23.46-5.9c.03-2.13.8-3.88 2.37-5.3 1.6-1.5 3.52-2.2 5.73-2.2 2.22 0 4.12.75 5.7 2.25 1.54 1.4 2.32 3.2 2.32 5.32v5.58H599.9zm22.1 30.94h-28.03v-23.7h28z" stroke="#fff" stroke-opacity="0" fill="#fff"/><path d="M607.2 57.3v6.25h1.6v-6.23c2.13-.4 3.62-2.2 3.63-4.35 0-2.43-1.97-4.4-4.4-4.43-2.2-.03-4.06 1.5-4.44 3.68-.42 2.4 1.2 4.68 3.6 5.1zm.82-7.15c.78 0 1.44.27 2 .83.54.55.82 1.2.8 2 .03 1.54-1.2 2.8-2.74 2.8h-.06c-1.56.13-2.92-1.04-3.04-2.6-.12-1.56 1.05-2.93 2.6-3.03.16-.02.28-.02.44 0z" stroke="#fff" stroke-opacity="0" fill="#fff"/><use xlink:href="#m" transform="matrix(1,0,0,1,651,40) translate(0 17.77777777777778)"/><use xlink:href="#n" transform="matrix(1,0,0,1,651,40) translate(75.18518518518519 17.77777777777778)"/><path d="M1900 20h434.5v300H1900z" fill="#147eba" fill-opacity=".13"/><path d="M1900 20h56v56h-56V20z" stroke="#fff" stroke-opacity="0" fill="#147eba"/><path d="M1943.38 42.18c-.15-.17-.34-.25-.56-.25h-5.15v-5.58c-.03-2.54-.97-4.7-2.84-6.4-1.9-1.84-4.15-2.75-6.77-2.75-2.65 0-4.9.83-6.8 2.62-1.9 1.7-2.87 3.87-2.9 6.4v5.66h-5.15c-.24 0-.43.1-.58.25-.16.17-.22.34-.22.6V68c0 .43.34.8.8.8h29.6c.46 0 .8-.37.8-.8V42.73c0-.2-.06-.38-.22-.54zm-23.46-5.9c.03-2.13.8-3.88 2.37-5.3 1.6-1.5 3.52-2.2 5.73-2.2 2.22 0 4.12.75 5.7 2.25 1.54 1.4 2.32 3.2 2.32 5.32v5.58h-16.16zm22.1 30.94h-28.03v-23.7h28z" stroke="#fff" stroke-opacity="0" fill="#fff"/><path d="M1927.2 57.3v6.25h1.6v-6.23c2.13-.4 3.62-2.2 3.63-4.35 0-2.43-1.97-4.4-4.4-4.43-2.2-.03-4.07 1.5-4.44 3.68-.42 2.4 1.2 4.68 3.6 5.1zm.82-7.15c.78 0 1.44.27 2 .83.54.55.82 1.2.8 2 .03 1.54-1.2 2.8-2.74 2.8h-.06c-1.56.13-2.92-1.04-3.04-2.6-.12-1.56 1.05-2.93 2.6-3.03.16-.02.3-.02.44 0z" stroke="#fff" stroke-opacity="0" fill="#fff"/><use xlink:href="#m" transform="matrix(1,0,0,1,1971,40) translate(0 17.77777777777778)"/><use xlink:href="#n" transform="matrix(1,0,0,1,1971,40) translate(75.18518518518519 17.77777777777778)"/><path d="M460 788a8 8 0 0 1 8-8h1964a8 8 0 0 1 8 8v444a8 8 0 0 1-8 8H468a8 8 0 0 1-8-8z" fill="#fff" fill-opacity="0"/><path d="M461.36 783.57l.17-.27.8-.96.97-.8.26-.18m2.88-1.2l.3-.06 1.26-.1h2m4 0h3.98m4 0h3.98m4 0h4m3.98 0h4m3.98 0h4m4 0h3.98m4 0h3.98m4 0h4m3.98 0h4m3.98 0h4m4 0h3.98m4 0h3.98m4 0h4m3.98 0h4m3.98 0h4m3.98 0h4m4 0h3.98m4 0h3.98m4 0h4m3.98 0h4m3.98 0h4m4 0h3.98m4 0h3.98m4 0h4m3.98 0h4m3.98 0h4m4 0h3.98m4 0h3.98m4 0h3.98m4 0h4m3.98 0h4m3.98 0h4m4 0h3.98m4 0h3.98m4 0h4m3.98 0h4m3.98 0h4m4 0h3.98m4 0h3.98m4 0h4m3.98 0h4m3.98 0h4m3.98 0h4m4 0h3.98m4 0h3.98m4 0h4m3.98 0h4m3.98 0h4m4 0h3.98m4 0h3.98m4 0h4m3.98 0h4m3.98 0h4m4 0h3.98m4 0h3.98m4 0h4m3.98 0h4m3.98 0h4m4 0h3.98m4 0H949m4 0H957m4 0h4m3.98 0h4m3.98 0h4m4 0h3.98m4 0h3.98m4 0h4m3.98 0h4m3.98 0h4m4 0h3.98m4 0h3.98m4 0h4m3.98 0h4m3.98 0h4m4 0h3.98m4 0h3.98m4 0h3.98m4 0h4m3.98 0h4m3.98 0h4m4 0h3.98m4 0h3.98m4 0h4m3.98 0h4m3.98 0h4m4 0h3.98m4 0h3.98m4 0h4m3.98 0h4m3.98 0h4m3.98 0h4m4 0h3.98m4 0h3.98m4 0h4m3.98 0h4m3.98 0h4m4 0h3.98m4 0h3.98m4 0h4m3.98 0h4m3.98 0h4m4 0h3.98m4 0h3.98m4 0h4m3.98 0h4m3.98 0h4m3.98 0h4m4 0h3.98m4 0h3.98m4 0h4m3.98 0h4m3.98 0h4m4 0h3.98m4 0h3.98m4 0h4m3.98 0h4m3.98 0h4m4 0h3.98m4 0h3.98m4 0h4m3.98 0h4m3.98 0h4m3.98 0h4m4 0h3.98m4 0h3.98m4 0h4m3.98 0h4m3.98 0h4m4 0h3.98m4 0h3.98m4 0h4m3.98 0h4m3.98 0h4m4 0h3.98m4 0h3.98m4 0h4m3.98 0h4m3.98 0h4m3.98 0h4m4 0h3.98m4 0h3.98m4 0h4m3.98 0h4m3.98 0h4m4 0h3.98m4 0h3.98m4 0h4m3.98 0h4m3.98 0h4m4 0h3.98m4 0h3.98m4 0h3.98m4 0h4m3.98 0h4m3.98 0h4m4 0h3.98m4 0h3.98m4 0h4m3.98 0h4m3.98 0h4m4 0h3.98m4 0h3.98m4 0h4m3.98 0h4m3.98 0h4m4 0h3.98m4 0h3.98m4 0h3.98m4 0h4m3.98 0h4m3.98 0h4m4 0h3.98m4 0h3.98m4 0h4m3.98 0h4m3.98 0h4m4 0h3.98m4 0h3.98m4 0h4m3.98 0h4m3.98 0h4m4 0h3.98m4 0h3.98m4 0h3.98m4 0h4m3.98 0h4m3.98 0h4m4 0h3.98m4 0h3.98m4 0h4m3.98 0h4m3.98 0h4m4 0h3.98m4 0h3.98m4 0h4m3.98 0h4m3.98 0h4m4 0h3.98m4 0h3.98m4 0h3.98m4 0h4m3.98 0h4m3.98 0h4m4 0h3.98m4 0h3.98m4 0h4m3.98 0h4m3.98 0h4m4 0h3.98m4 0h3.98m4 0h4m3.98 0h4m3.98 0h4m3.98 0h4m4 0h3.98m4 0h3.98m4 0h4m3.98 0h4m3.98 0h4m4 0h3.98m4 0h3.98m4 0h4m3.98 0h4m3.98 0h4m4 0h3.98m4 0h3.98m4 0h3.98m4 0h4m3.98 0h4m3.98 0h4m4 0h3.98m4 0h3.98m4 0h4m3.98 0h4m3.98 0h4m4 0h3.98m4 0h3.98m4 0h4m3.98 0h4m3.98 0h4m4 0h3.98m4 0h3.98m4 0h4m3.98 0h4m3.98 0h4m3.98 0h2l1.25.1.3.07m2.88 1.2l.27.16.96.8.8.97.18.27m1.2 2.87l.06.3.1 1.26v1.98m0 3.97v3.96m0 3.98v3.96m0 3.96v3.97m0 3.96v3.97m0 3.96v3.97m0 3.96v3.95m0 3.97v3.96m0 3.97v3.96m0 3.98v3.96m0 3.96v3.97m0 3.96v3.97m0 3.96v3.97m0 3.96v3.95m0 3.97v3.96m0 3.97v3.96m0 3.98v3.96m0 3.96v3.97m0 3.96v3.97m0 3.96v3.97m0 3.96v3.95m0 3.97v3.96m0 3.97v3.96m0 3.98v3.96m0 3.96v3.97m0 3.96v3.97m0 3.96v3.97m0 3.96v3.95m0 3.97v3.96m0 3.97v3.96m0 3.98v3.96m0 3.96v3.97m0 3.96v3.97m0 3.96v3.96m0 3.97v3.95m0 3.97v3.96m0 3.97v3.96m0 3.97v3.97m0 3.96v3.97m0 3.96v3.97m0 3.96v3.96m0 3.97v3.95m0 3.97v3.96m0 3.97v3.96m0 3.97v3.97m0 3.96v3.97m0 3.96v3.97m0 3.96v3.96m0 3.97v3.95m0 3.97v3.96m0 3.97v3.96m0 3.97v3.97m0 3.96v3.97m0 3.96v3.97m0 3.96v3.96m0 3.97v3.95m0 3.97v1.98l-.1 1.25-.07.3m-1.2 2.88l-.16.27-.8.96-.97.8-.26.18m-2.88 1.2l-.3.06-1.26.1h-2m-4 0h-3.98m-4 0h-3.98m-4 0h-4m-3.98 0h-4m-3.98 0h-4m-4 0h-3.98m-4 0h-3.98m-4 0h-4m-3.98 0h-4m-3.98 0h-4m-3.98 0h-4m-4 0h-3.98m-4 0h-3.98m-4 0h-4m-3.98 0h-4m-3.98 0h-4m-4 0h-3.98m-4 0h-3.98m-4 0h-4m-3.98 0h-4m-3.98 0h-4m-4 0h-3.98m-4 0h-3.98m-4 0h-4m-3.98 0h-4m-3.98 0h-4m-4 0h-3.98m-4 0h-3.98m-4 0h-3.98m-4 0h-4m-3.98 0h-4m-3.98 0h-4m-4 0h-3.98m-4 0h-3.98m-4 0h-4m-3.98 0h-4m-3.98 0h-4m-4 0h-3.98m-4 0h-3.98m-4 0h-4m-3.98 0h-4m-3.98 0h-4m-3.98 0h-4m-4 0h-3.98m-4 0h-3.98m-4 0h-4m-3.98 0h-4m-3.98 0h-4m-4 0h-3.98m-4 0h-3.98m-4 0h-4m-3.98 0h-4m-3.98 0h-4m-4 0h-3.98m-4 0h-3.98m-4 0h-4m-3.98 0h-4m-3.98 0h-4m-4 0h-3.98m-4 0H1951m-4 0H1943m-4 0h-4m-3.98 0h-4m-3.98 0h-4m-4 0h-3.98m-4 0h-3.98m-4 0h-4m-3.98 0h-4m-3.98 0h-4m-4 0h-3.98m-4 0h-3.98m-4 0h-4m-3.98 0h-4m-3.98 0h-4m-4 0h-3.98m-4 0h-3.98m-4 0h-3.98m-4 0h-4m-3.98 0h-4m-3.98 0h-4m-4 0h-3.98m-4 0h-3.98m-4 0h-4m-3.98 0h-4m-3.98 0h-4m-4 0h-3.98m-4 0h-3.98m-4 0h-4m-3.98 0h-4m-3.98 0h-4m-3.98 0h-4m-4 0h-3.98m-4 0h-3.98m-4 0h-4m-3.98 0h-4m-3.98 0h-4m-4 0h-3.98m-4 0h-3.98m-4 0h-4m-3.98 0h-4m-3.98 0h-4m-4 0h-3.98m-4 0h-3.98m-4 0h-4m-3.98 0h-4m-3.98 0h-4m-3.98 0h-4m-4 0h-3.98m-4 0h-3.98m-4 0h-4m-3.98 0h-4m-3.98 0h-4m-4 0h-3.98m-4 0h-3.98m-4 0h-4m-3.98 0h-4m-3.98 0h-4m-4 0h-3.98m-4 0h-3.98m-4 0h-4m-3.98 0h-4m-3.98 0h-4m-3.98 0h-4m-4 0h-3.98m-4 0h-3.98m-4 0h-4m-3.98 0h-4m-3.98 0h-4m-4 0h-3.98m-4 0h-3.98m-4 0h-4m-3.98 0h-4m-3.98 0h-4m-4 0h-3.98m-4 0h-3.98m-4 0h-4m-3.98 0h-4m-3.98 0h-4m-3.98 0h-4m-4 0h-3.98m-4 0h-3.98m-4 0h-4m-3.98 0h-4m-3.98 0h-4m-4 0h-3.98m-4 0h-3.98m-4 0h-4m-3.98 0h-4m-3.98 0h-4m-4 0h-3.98m-4 0h-3.98m-4 0h-3.98m-4 0h-4m-3.98 0h-4m-3.98 0h-4m-4 0h-3.98m-4 0h-3.98m-4 0h-4m-3.98 0h-4m-3.98 0h-4m-4 0h-3.98m-4 0h-3.98m-4 0h-4m-3.98 0h-4m-3.98 0h-4m-4 0h-3.98m-4 0h-3.98m-4 0h-3.98m-4 0h-4m-3.98 0h-4m-3.98 0h-4m-4 0h-3.98m-4 0h-3.98m-4 0h-4m-3.98 0h-4m-3.98 0h-4m-4 0h-3.98m-4 0h-3.98m-4 0h-4m-3.98 0h-4m-3.98 0h-4m-4 0h-3.98m-4 0H969m-4 0H961m-4 0h-4m-3.98 0h-4m-3.98 0h-4m-4 0h-3.98m-4 0h-3.98m-4 0h-4m-3.98 0h-4m-3.98 0h-4m-4 0h-3.98m-4 0h-3.98m-4 0h-4m-3.98 0h-4m-3.98 0h-4m-4 0h-3.98m-4 0h-3.98m-4 0h-3.98m-4 0h-4m-3.98 0h-4m-3.98 0h-4m-4 0h-3.98m-4 0h-3.98m-4 0h-4m-3.98 0h-4m-3.98 0h-4m-4 0h-3.98m-4 0h-3.98m-4 0h-4m-3.98 0h-4m-3.98 0h-4m-3.98 0h-4m-4 0h-3.98m-4 0h-3.98m-4 0h-4m-3.98 0h-4m-3.98 0h-4m-4 0h-3.98m-4 0h-3.98m-4 0h-4m-3.98 0h-4m-3.98 0h-4m-4 0h-3.98m-4 0h-3.98m-4 0h-3.98m-4 0h-4m-3.98 0h-4m-3.98 0h-4m-4 0h-3.98m-4 0h-3.98m-4 0h-4m-3.98 0h-4m-3.98 0h-4m-4 0h-3.98m-4 0h-3.98m-4 0h-4m-3.98 0h-4m-3.98 0h-4m-3.98 0h-4m-4 0h-3.98m-4 0h-4m-3.98 0h-4m-3.98 0h-4m-3.98 0h-2l-1.25-.1-.3-.07m-2.88-1.2l-.27-.16-.96-.8-.8-.97-.18-.27m-1.2-2.87l-.06-.3-.1-1.26v-1.98m0-3.97v-3.96m0-3.97v-3.97m0-3.96v-3.97m0-3.96v-3.97m0-3.96v-3.96m0-3.97v-3.95m0-3.97v-3.96m0-3.97v-3.96m0-3.97v-3.97m0-3.96v-3.97m0-3.96v-3.97m0-3.96v-3.96m0-3.97v-3.95m0-3.97v-3.96m0-3.97v-3.96m0-3.97v-3.97m0-3.96v-3.97m0-3.96v-3.97m0-3.96v-3.96m0-3.97v-3.95m0-3.97v-3.96m0-3.97v-3.96m0-3.97v-3.97m0-3.96v-3.97m0-3.96v-3.97m0-3.96v-3.96m0-3.97v-3.95m0-3.97v-3.96m0-3.97v-3.96m0-3.98v-3.96m0-3.96v-3.97m0-3.96v-3.97m0-3.96v-3.97m0-3.96v-3.95m0-3.97v-3.96m0-3.97v-3.96m0-3.98v-3.96m0-3.96v-3.97m0-3.96v-3.97m0-3.96v-3.97m0-3.96v-3.95m0-3.97v-3.96m0-3.97v-3.96m0-3.98v-3.96m0-3.96v-3.97m0-3.96v-3.97m0-3.96v-3.97m0-3.96v-3.95m0-3.97v-3.96m0-3.97v-3.96m0-3.98v-3.96m0-3.96v-3.97m0-3.96v-3.97m0-3.96v-3.97m0-3.96v-3.95m0-3.97V788l.1-1.25.07-.3" stroke="#147eba" fill="none"/><use xlink:href="#h" transform="matrix(1,0,0,1,460,800) translate(900.2777777777778 17.77777777777778)"/><use xlink:href="#i" transform="matrix(1,0,0,1,460,800) translate(1010.6481481481482 17.77777777777778)"/><use xlink:href="#o" transform="matrix(1,0,0,1,460,800) translate(1067.3765432098767 17.77777777777778)"/><path d="M-218.62 484.5h-19.75c-.9 0-1.63-.73-1.63-1.62v-2.42c0-9.04 5.94-16.62 14.75-18.74.4-.1.8-.05 1.16.16 2.6 1.4 5.42 1.4 8 0 .4-.2.76-.25 1.17-.16 2.3.57 4.22 1.4 6.2 2.72l-1.82 2.7c-1.47-.97-2.85-1.6-4.57-2.06-3.28 1.5-6.66 1.5-9.94 0-7.03 1.96-11.7 8.1-11.7 15.38v.8h18.14z" stroke="#fff" stroke-opacity="0" fill="#666"/><path d="M-220.1 466.1c-5.9 0-10.65-4.76-10.65-10.63 0-5.86 4.76-10.62 10.64-10.62 5.86-.06 10.65 4.66 10.72 10.5.04 4.05-2 7.5-5.58 9.43-1.65.9-3.25 1.3-5.15 1.3zm0-18.02c-4.12 0-7.47 3.3-7.5 7.4 0 2.78 1.42 5.15 3.88 6.47 2.33 1.25 4.9 1.25 7.22 0 2.48-1.34 3.9-3.76 3.87-6.58-.05-4.06-3.4-7.3-7.48-7.27zM-165.4 484.5h-19.75v-3.24H-167v-.8c0-7.3-4.68-13.43-11.7-15.4-3.3 1.53-6.67 1.53-9.96 0-1.72.48-3.13 1.15-4.6 2.17l-1.85-2.67c1.96-1.37 3.87-2.23 6.2-2.82.4-.1.8-.05 1.18.15 2.57 1.4 5.42 1.4 8.02 0 .38-.2.75-.26 1.16-.16 8.8 2.12 14.75 9.7 14.75 18.72v2.42c0 .9-.7 1.6-1.6 1.62z" stroke="#fff" stroke-opacity="0" fill="#666"/><path d="M-183.72 466.1c-5.9 0-10.7-4.82-10.7-10.73 0-5.9 4.83-10.68 10.75-10.68s10.7 4.8 10.7 10.72c0 4.02-2.04 7.44-5.58 9.37-1.67.9-3.28 1.3-5.16 1.3zm0-18c-4.1-.03-7.44 3.27-7.46 7.38-.02 2.78 1.4 5.16 3.86 6.46 2.32 1.26 4.9 1.26 7.23 0 2.52-1.32 3.95-3.76 3.9-6.6-.07-4.08-3.44-7.33-7.52-7.24zM-176 520.9h-51.86c-.88 0-1.6-.7-1.6-1.6v-3.45c-.05-12.46 8.2-22.94 20.32-25.9.44-.1.83-.05 1.2.14 3.87 2.06 8.1 2.06 12 0 .34-.2.73-.26 1.17-.14 12.17 2.92 20.43 13.4 20.37 25.9v3.43c0 .9-.7 1.6-1.6 1.6zm-50.2-3.22h48.55v-1.83c0-10.73-6.93-19.75-17.34-22.54-4.56 2.2-9.35 2.2-13.92 0-10.4 2.8-17.3 11.82-17.3 22.55z" stroke="#fff" stroke-opacity="0" fill="#666"/><path d="M-201.87 494.84c-2.57 0-4.76-.55-7.04-1.77-7.08-3.88-9.68-12.7-5.82-19.8 3.88-7.04 12.73-9.63 19.83-5.8 7.08 3.9 9.67 12.72 5.82 19.8-1.4 2.56-3.24 4.4-5.8 5.8-2.26 1.22-4.45 1.77-7 1.77zm0-25.5c-4.24-.05-7.9 2.08-9.93 5.8-2.92 5.4-.94 12.16 4.47 15.1 3.5 1.86 7.36 1.86 10.86 0 3.77-2.04 5.93-5.68 5.87-9.94-.1-6.12-5.14-11.04-11.27-10.95z" stroke="#fff" stroke-opacity="0" fill="#666"/><path d="M-164.95 484.5h-37.84c-.64 0-1.16-.52-1.16-1.18v-2.5c-.04-9.1 6-16.75 14.83-18.9.32-.1.6-.04.88.1 2.8 1.5 5.9 1.5 8.76 0 .25-.14.53-.2.85-.1 8.88 2.13 14.9 9.78 14.86 18.9v2.5c0 .66-.5 1.18-1.15 1.18zm-36.64-2.35h35.44v-1.34c0-7.8-5.06-14.4-12.65-16.43-3.35 1.6-6.84 1.6-10.17 0-7.6 2.03-12.62 8.62-12.62 16.44z" stroke="#fff" stroke-opacity="0" stroke-width=".73" fill="#fff" fill-opacity="0"/><path d="M-201 484.5h-37.84c-.64 0-1.16-.52-1.16-1.18v-2.5c-.04-9.1 6-16.75 14.82-18.9.32-.1.6-.04.9.1 2.8 1.5 5.9 1.5 8.74 0 .24-.14.53-.2.85-.1 8.88 2.13 14.9 9.78 14.87 18.9v2.5c0 .66-.52 1.18-1.16 1.18zm-36.63-2.35h35.43v-1.34c0-7.8-5.06-14.4-12.65-16.43-3.34 1.6-6.83 1.6-10.17 0-7.6 2.03-12.6 8.62-12.6 16.44z" stroke="#fff" stroke-opacity="0" stroke-width=".73" fill="#fff" fill-opacity="0"/><path d="M580 840h434.5v340H580z" fill="#147eba" fill-opacity=".13"/><path d="M580 840h56v56h-56v-56z" stroke="#fff" stroke-opacity="0" fill="#147eba"/><path d="M623.38 862.18c-.15-.17-.34-.25-.56-.25h-5.15v-5.58c-.03-2.54-.96-4.7-2.84-6.4-1.9-1.84-4.15-2.75-6.77-2.75-2.65 0-4.9.83-6.8 2.62-1.9 1.7-2.87 3.87-2.9 6.4v5.66h-5.15c-.24 0-.43.1-.58.25-.16.17-.22.34-.22.6V888c0 .43.34.8.8.8h29.6c.46 0 .8-.37.8-.8v-25.28c0-.2-.06-.38-.22-.54zm-23.46-5.9c.03-2.13.8-3.88 2.37-5.3 1.6-1.5 3.52-2.2 5.73-2.2 2.22 0 4.12.75 5.7 2.25 1.54 1.4 2.32 3.2 2.32 5.32v5.58H599.9zm22.1 30.94h-28.03v-23.7h28z" stroke="#fff" stroke-opacity="0" fill="#fff"/><path d="M607.2 877.3v6.25h1.6v-6.23c2.13-.4 3.62-2.2 3.63-4.35 0-2.43-1.97-4.4-4.4-4.43-2.2-.03-4.06 1.5-4.44 3.68-.42 2.4 1.2 4.68 3.6 5.1zm.82-7.15c.78 0 1.44.27 2 .83.54.55.82 1.2.8 2 .03 1.54-1.2 2.8-2.74 2.8h-.06c-1.56.13-2.92-1.04-3.04-2.6-.12-1.56 1.05-2.93 2.6-3.03.16-.02.28-.02.44 0z" stroke="#fff" stroke-opacity="0" fill="#fff"/><use xlink:href="#m" transform="matrix(1,0,0,1,651,860) translate(0 17.77777777777778)"/><use xlink:href="#n" transform="matrix(1,0,0,1,651,860) translate(75.18518518518519 17.77777777777778)"/><path d="M1900 840h434.5v340H1900z" fill="#147eba" fill-opacity=".13"/><path d="M1900 840h56v56h-56v-56z" stroke="#fff" stroke-opacity="0" fill="#147eba"/><path d="M1943.38 862.18c-.15-.17-.34-.25-.56-.25h-5.15v-5.58c-.03-2.54-.97-4.7-2.84-6.4-1.9-1.84-4.15-2.75-6.77-2.75-2.65 0-4.9.83-6.8 2.62-1.9 1.7-2.87 3.87-2.9 6.4v5.66h-5.15c-.24 0-.43.1-.58.25-.16.17-.22.34-.22.6V888c0 .43.34.8.8.8h29.6c.46 0 .8-.37.8-.8v-25.28c0-.2-.06-.38-.22-.54zm-23.46-5.9c.03-2.13.8-3.88 2.37-5.3 1.6-1.5 3.52-2.2 5.73-2.2 2.22 0 4.12.75 5.7 2.25 1.54 1.4 2.32 3.2 2.32 5.32v5.58h-16.16zm22.1 30.94h-28.03v-23.7h28z" stroke="#fff" stroke-opacity="0" fill="#fff"/><path d="M1927.2 877.3v6.25h1.6v-6.23c2.13-.4 3.62-2.2 3.63-4.35 0-2.43-1.97-4.4-4.4-4.43-2.2-.03-4.07 1.5-4.44 3.68-.42 2.4 1.2 4.68 3.6 5.1zm.82-7.15c.78 0 1.44.27 2 .83.54.55.82 1.2.8 2 .03 1.54-1.2 2.8-2.74 2.8h-.06c-1.56.13-2.92-1.04-3.04-2.6-.12-1.56 1.05-2.93 2.6-3.03.16-.02.3-.02.44 0z" stroke="#fff" stroke-opacity="0" fill="#fff"/><use xlink:href="#m" transform="matrix(1,0,0,1,1971,860) translate(0 17.77777777777778)"/><use xlink:href="#n" transform="matrix(1,0,0,1,1971,860) translate(75.18518518518519 17.77777777777778)"/><path d="M1320 840h420v340h-420z" fill="#147eba" fill-opacity=".13"/><path d="M1320 840h56v56h-56v-56z" stroke="#fff" stroke-opacity="0" fill="#147eba"/><path d="M1363.38 862.18c-.15-.17-.34-.25-.56-.25h-5.15v-5.58c-.03-2.54-.97-4.7-2.84-6.4-1.9-1.84-4.15-2.75-6.77-2.75-2.65 0-4.9.83-6.8 2.62-1.9 1.7-2.87 3.87-2.9 6.4v5.66h-5.15c-.24 0-.43.1-.58.25-.16.17-.22.34-.22.6V888c0 .43.34.8.8.8h29.6c.46 0 .8-.37.8-.8v-25.28c0-.2-.06-.38-.22-.54zm-23.46-5.9c.03-2.13.8-3.88 2.37-5.3 1.6-1.5 3.52-2.2 5.73-2.2 2.22 0 4.12.75 5.7 2.25 1.54 1.4 2.32 3.2 2.32 5.32v5.58h-16.16zm22.1 30.94h-28.03v-23.7h28z" stroke="#fff" stroke-opacity="0" fill="#fff"/><path d="M1347.2 877.3v6.25h1.6v-6.23c2.13-.4 3.62-2.2 3.63-4.35 0-2.43-1.97-4.4-4.4-4.43-2.2-.03-4.07 1.5-4.44 3.68-.42 2.4 1.2 4.68 3.6 5.1zm.82-7.15c.78 0 1.44.27 2 .83.54.55.82 1.2.8 2 .03 1.54-1.2 2.8-2.74 2.8h-.06c-1.56.13-2.92-1.04-3.04-2.6-.12-1.56 1.05-2.93 2.6-3.03.16-.02.3-.02.44 0z" stroke="#fff" stroke-opacity="0" fill="#fff"/><use xlink:href="#m" transform="matrix(1,0,0,1,1391,860) translate(0 17.77777777777778)"/><use xlink:href="#n" transform="matrix(1,0,0,1,1391,860) translate(75.18518518518519 17.77777777777778)"/><path d="M1320 20h434.5v300H1320z" fill="#147eba" fill-opacity=".13"/><path d="M1320 20h56v56h-56V20z" stroke="#fff" stroke-opacity="0" fill="#147eba"/><path d="M1363.38 42.18c-.15-.17-.34-.25-.56-.25h-5.15v-5.58c-.03-2.54-.97-4.7-2.84-6.4-1.9-1.84-4.15-2.75-6.77-2.75-2.65 0-4.9.83-6.8 2.62-1.9 1.7-2.87 3.87-2.9 6.4v5.66h-5.15c-.24 0-.43.1-.58.25-.16.17-.22.34-.22.6V68c0 .43.34.8.8.8h29.6c.46 0 .8-.37.8-.8V42.73c0-.2-.06-.38-.22-.54zm-23.46-5.9c.03-2.13.8-3.88 2.37-5.3 1.6-1.5 3.52-2.2 5.73-2.2 2.22 0 4.12.75 5.7 2.25 1.54 1.4 2.32 3.2 2.32 5.32v5.58h-16.16zm22.1 30.94h-28.03v-23.7h28z" stroke="#fff" stroke-opacity="0" fill="#fff"/><path d="M1347.2 57.3v6.25h1.6v-6.23c2.13-.4 3.62-2.2 3.63-4.35 0-2.43-1.97-4.4-4.4-4.43-2.2-.03-4.07 1.5-4.44 3.68-.42 2.4 1.2 4.68 3.6 5.1zm.82-7.15c.78 0 1.44.27 2 .83.54.55.82 1.2.8 2 .03 1.54-1.2 2.8-2.74 2.8h-.06c-1.56.13-2.92-1.04-3.04-2.6-.12-1.56 1.05-2.93 2.6-3.03.16-.02.3-.02.44 0z" stroke="#fff" stroke-opacity="0" fill="#fff"/><use xlink:href="#m" transform="matrix(1,0,0,1,1391,40) translate(0 17.77777777777778)"/><use xlink:href="#n" transform="matrix(1,0,0,1,1391,40) translate(75.18518518518519 17.77777777777778)"/><path d="M-50 619c-27.6 0-50-21.93-50-48.94 0-27 22.4-48.93 50-48.93s50 21.92 50 48.93c0 27-22.4 48.93-50 48.93zm0-93.66c-25.3 0-45.7 19.96-45.7 44.72 0 24.76 20.4 44.72 45.7 44.72 25.3 0 45.7-19.96 45.7-44.72 0-24.76-20.4-44.72-45.7-44.72z" stroke="#fff" stroke-opacity="0" fill="#693cc5"/><path d="M-26.07 599.46h-7.98c-1.2 0-2.14-.93-2.14-2.08V557c-4.3-2.2-8.43-3.18-13.28-3.3-5.32.12-9.75 1.27-14.44 3.76v39.92c0 1.15-.94 2.08-2.08 2.08h-7.93c-1.2 0-2.13-.93-2.13-2.08v-45.4c0-.64.26-1.16.73-1.57 7.6-6.1 16.05-8.94 25.85-8.7 9.28-.2 17.26 2.36 24.7 7.73.58.4.84.98.84 1.62v46.33c0 1.15-.93 2.08-2.13 2.08zm-5.84-4.16h3.7v-43.2c-6.53-4.4-13.36-6.37-21.28-6.25-8.4-.24-15.64 2.08-22.3 7.04v42.4h3.64v-39.17c0-.8.42-1.5 1.15-1.85 5.64-3.12 11.06-4.62 17.52-4.74 5.9.18 10.9 1.45 16.1 4.16h.22c.78.35 1.25 1.04 1.25 1.9z" stroke="#fff" stroke-opacity="0" fill="#693cc5"/><use xlink:href="#p" transform="matrix(1,0,0,1,-130,627.9869107452671) translate(3.944444444444443 16)"/><use xlink:href="#q" transform="matrix(1,0,0,1,-130,627.9869107452671) translate(77.22222222222223 16)"/><path d="M737.25 120h120v120h-120V120z" stroke="#fff" stroke-opacity="0" stroke-width="2" fill="#d86613"/><path d="M834.05 184.8h-8v-3.18h8v-38.44h-38.43v8.02h-3.18v-8.02c0-1.75 1.43-3.18 3.18-3.18h38.43c1.75 0 3.2 1.43 3.2 3.18v38.44c0 1.75-1.45 3.18-3.2 3.18zM798.86 220H760.4c-1.75 0-3.18-1.43-3.18-3.18v-38.44c0-1.75 1.43-3.18 3.18-3.18h8.02v3.18h-8.02v38.44h38.44v-8.02h3.18v8.02c0 1.75-1.44 3.18-3.18 3.18z" stroke="#fff" stroke-opacity="0" stroke-width="2" fill="#fff"/><path d="M822.85 165.6v-3.2h-4.8c-.1-1.7-1.5-3.1-3.18-3.2v-4.8h-3.23v4.8h-4.76v-4.8h-3.23v4.8h-4.8v-4.8h-3.2v4.8h-4.8v-4.8h-3.17v4.8h-4.8v-4.8h-3.24v4.8c-1.7.12-3.07 1.5-3.17 3.2h-4.82v3.2h4.82v4.83h-4.82v3.17h4.82v4.8h-4.82v3.2h4.82v4.8h-4.82v3.23h4.82v4.76h-4.82v3.2h4.82c.1 1.7 1.48 3.1 3.17 3.2v4.8h3.23v-4.8h4.8v4.8h3.18v-4.8h4.8v4.8h3.2v-4.8h4.8v4.8h3.23v-4.8h4.76v4.8h3.23v-4.8c1.68-.12 3.07-1.5 3.17-3.2h4.8v-3.2h-4.8v-4.77h4.8v-3.23h-4.8v-4.8h4.8v-3.2h-4.8v-4.8h4.8v-3.17h-4.8v-4.82zm-8 31.7c0 .16-.14.3-.3.3h-34.6c-.16 0-.3-.14-.3-.3v-34.6c0-.16.14-.3.3-.3h34.6c.16 0 .32.14.32.3z" stroke="#fff" stroke-opacity="0" stroke-width="2" fill="#fff"/><use xlink:href="#r" transform="matrix(1,0,0,1,707.2520058036763,249) translate(27.861111111111107 16)"/><use xlink:href="#s" transform="matrix(1,0,0,1,707.2520058036763,249) translate(113.30555555555557 16)"/><path d="M1477.75 120h120v120h-120V120z" stroke="#fff" stroke-opacity="0" stroke-width="2" fill="#d86613"/><path d="M1574.55 184.8h-8.02v-3.18h8.02v-38.44h-38.44v8.02h-3.17v-8.02c0-1.75 1.44-3.18 3.18-3.18h38.45c1.75 0 3.18 1.43 3.18 3.18v38.44c0 1.75-1.43 3.18-3.18 3.18zM1539.35 220h-38.44c-1.73 0-3.17-1.43-3.17-3.18v-38.44c0-1.75 1.44-3.18 3.18-3.18h8.03v3.18h-8.02v38.44h38.45v-8.02h3.18v8.02c0 1.75-1.43 3.18-3.18 3.18z" stroke="#fff" stroke-opacity="0" stroke-width="2" fill="#fff"/><path d="M1563.35 165.6v-3.2h-4.8c-.12-1.7-1.5-3.1-3.2-3.2v-4.8h-3.2l-.02 4.8h-4.76v-4.8h-3.22v4.8h-4.82v-4.8h-3.17v4.8h-4.8v-4.8h-3.2v4.8h-4.8v-4.8h-3.22v4.8c-1.7.12-3.08 1.5-3.18 3.2h-4.8v3.2h4.8v4.83h-4.8v3.17h4.8v4.8h-4.8v3.2h4.8v4.8h-4.8v3.23h4.8v4.76h-4.8v3.2h4.8c.1 1.7 1.5 3.1 3.17 3.2v4.8h3.23v-4.8h4.8v4.8h3.2v-4.8h4.8v4.8h3.17v-4.8h4.82v4.8h3.22v-4.8h4.77v4.8h3.22v-4.8c1.7-.12 3.07-1.5 3.18-3.2h4.8v-3.2h-4.8v-4.77h4.8v-3.23h-4.8v-4.8h4.8v-3.2h-4.8v-4.8h4.8v-3.17h-4.8v-4.82zm-8 31.7c0 .16-.14.3-.3.3h-34.6c-.16 0-.32-.14-.32-.3v-34.6c0-.16.16-.3.3-.3h34.62c.16 0 .3.14.3.3z" stroke="#fff" stroke-opacity="0" stroke-width="2" fill="#fff"/><use xlink:href="#t" transform="matrix(1,0,0,1,1447.7479941963238,249) translate(28.916666666666664 16)"/><use xlink:href="#s" transform="matrix(1,0,0,1,1447.7479941963238,249) translate(112.25 16)"/><path d="M1475 920h120v120h-120V920z" stroke="#fff" stroke-opacity="0" stroke-width="2" fill="#d86613"/><path d="M1571.8 984.8h-8.02v-3.18h8.02v-38.44h-38.43v8.02h-3.2v-8.02c0-1.75 1.45-3.18 3.2-3.18h38.43c1.75 0 3.18 1.43 3.18 3.18v38.44c0 1.75-1.43 3.18-3.18 3.18zM1536.6 1020h-38.43c-1.75 0-3.2-1.43-3.2-3.18v-38.44c0-1.75 1.45-3.18 3.2-3.18h8v3.18h-8v38.44h38.43v-8.02h3.18v8.02c0 1.75-1.43 3.18-3.18 3.18z" stroke="#fff" stroke-opacity="0" stroke-width="2" fill="#fff"/><path d="M1560.6 965.6v-3.2h-4.8c-.12-1.7-1.5-3.08-3.2-3.2v-4.8h-3.2v4.8h-4.77v-4.8h-3.23v4.8h-4.8v-4.8h-3.2v4.8h-4.8v-4.8h-3.17v4.8h-4.82v-4.8h-3.2v4.8c-1.7.12-3.1 1.5-3.2 3.2h-4.8v3.2h4.8v4.83h-4.8v3.17h4.8v4.8h-4.8v3.2h4.8v4.8h-4.8v3.23h4.8v4.76h-4.8v3.2h4.8c.12 1.7 1.5 3.08 3.2 3.2v4.8h3.2v-4.8h4.83v4.8h3.17v-4.8h4.8v4.8h3.2v-4.8h4.8v4.8h3.23v-4.8h4.76v4.8h3.2v-4.8c1.7-.12 3.1-1.5 3.2-3.2h4.8v-3.2h-4.8v-4.77h4.8v-3.23h-4.8v-4.8h4.8v-3.2h-4.8v-4.8h4.8v-3.17h-4.8v-4.82zm-8 31.7c0 .16-.14.3-.3.3h-34.6c-.16 0-.3-.14-.3-.3v-34.6c0-.16.14-.3.3-.3h34.6c.16 0 .3.14.3.3z" stroke="#fff" stroke-opacity="0" stroke-width="2" fill="#fff"/><use xlink:href="#t" transform="matrix(1,0,0,1,1445,1049) translate(28.916666666666664 16)"/><use xlink:href="#s" transform="matrix(1,0,0,1,1445,1049) translate(112.25 16)"/><path d="M2060 120h120v120h-120V120z" stroke="#fff" stroke-opacity="0" stroke-width="2" fill="#3b48cc"/><path d="M2137.53 165.17c0-4.63-9.1-6.8-17.6-6.8-8.5 0-17.6 2.17-17.6 6.8 0 .26.02.43.06.7v28.84c-.08 4.85 9.06 6.88 17.6 6.88 8.57 0 17.6-2.1 17.6-6.74v-29.67zm-17.57-3.6c9.3 0 14.4 2.56 14.4 3.6 0 1.03-5.05 3.58-14.4 3.58-9.4 0-14.4-2.5-14.4-3.58 0-1.04 5.05-3.6 14.4-3.6zm14.4 33.28c0 1.03-5.05 3.54-14.4 3.54-9.35 0-14.4-2.52-14.4-3.56v-5.05c3.36 1.85 9.04 2.7 14.4 2.7 5.36 0 10.97-.85 14.4-2.67zm0-9.12c0 1.04-5.05 3.6-14.4 3.6-9.4-.02-14.4-2.56-14.4-3.6h.04v-6.1c3.4 1.82 9.03 2.7 14.4 2.7 5.36 0 10.97-.88 14.4-2.65zm0-10.2c0 1.04-5.05 3.63-14.4 3.63-9.4 0-14.4-2.6-14.4-3.63h.04v-6.22c3.42 1.83 9 2.65 14.4 2.65s11.07-.86 14.4-2.72zM2085.46 216.82H2096v3.2h-14.4c-.88 0-1.6-.72-1.6-1.6V204h3.2v10.5l12-11.98 2.24 2.26zM2160 204.02v14.4c0 .9-.7 1.6-1.6 1.6H2144v-3.2h10.54l-11.82-11.85 2.26-2.25 11.82 11.8v-10.5zM2160 141.62v14.4h-3.2v-10.57l-11.82 11.83-2.26-2.26 11.8-11.8H2144V140h14.4c.9 0 1.6.7 1.6 1.6zM2097.44 155.2l-2.23 2.24-12-12V156h-3.2v-14.4c0-.9.72-1.62 1.6-1.62h14.4v3.2h-10.54zM2095.46 194.34c-9.78-3.5-15.38-8.9-15.38-14.74s5.6-11.2 15.38-14.74l1.08 3c-8.3 3.02-13.27 7.38-13.27 11.74s4.98 8.72 13.27 11.73zM2143.65 194.7l-1.03-3.06c8.88-3 14.18-7.48 14.18-12.04 0-4.56-5.3-9.05-14.18-12.07l1.03-3.02c10.4 3.5 16.35 9.03 16.35 15.1 0 6.06-5.96 11.56-16.35 15.1z" stroke="#fff" stroke-opacity="0" stroke-width="2" fill="#fff"/><use xlink:href="#u" transform="matrix(1,0,0,1,2030,249) translate(29.52777777777777 16)"/><use xlink:href="#v" transform="matrix(1,0,0,1,2030,249) translate(108.36111111111111 16)"/><path d="M2060 940h120v120h-120V940z" stroke="#fff" stroke-opacity="0" stroke-width="2" fill="#3b48cc"/><path d="M2137.53 985.17c0-4.63-9.1-6.8-17.6-6.8-8.5 0-17.6 2.17-17.6 6.8 0 .26.02.43.06.7v28.85c-.08 4.83 9.06 6.86 17.6 6.86 8.57 0 17.6-2.1 17.6-6.74v-29.67zm-17.57-3.6c9.3 0 14.4 2.56 14.4 3.6 0 1.03-5.05 3.58-14.4 3.58-9.4 0-14.4-2.5-14.4-3.58 0-1.04 5.05-3.6 14.4-3.6zm14.4 33.27c0 1.04-5.05 3.55-14.4 3.55-9.35 0-14.4-2.52-14.4-3.55v-5.06c3.36 1.85 9.04 2.7 14.4 2.7 5.36 0 10.97-.85 14.4-2.67zm0-9.1c0 1.03-5.05 3.58-14.4 3.58-9.4 0-14.4-2.55-14.4-3.6h.04v-6.08c3.4 1.8 9.03 2.68 14.4 2.68 5.36 0 10.97-.87 14.4-2.64zm0-10.2c0 1.03-5.05 3.62-14.4 3.62-9.4 0-14.4-2.6-14.4-3.63h.04v-6.22c3.42 1.83 9 2.65 14.4 2.65s11.07-.87 14.4-2.72zM2085.46 1036.82H2096v3.2h-14.4c-.88 0-1.6-.72-1.6-1.6V1024h3.2v10.5l12-11.98 2.24 2.26zM2160 1024.02v14.4c0 .9-.7 1.6-1.6 1.6H2144v-3.2h10.54l-11.82-11.85 2.26-2.25 11.82 11.8v-10.5zM2160 961.62v14.4h-3.2v-10.57l-11.82 11.83-2.26-2.26 11.8-11.8H2144V960h14.4c.9 0 1.6.7 1.6 1.6zM2097.44 975.2l-2.23 2.24-12-12V976h-3.2v-14.4c0-.9.72-1.62 1.6-1.62h14.4v3.2h-10.54zM2095.46 1014.34c-9.78-3.5-15.38-8.9-15.38-14.74s5.6-11.2 15.38-14.74l1.08 3c-8.3 3.02-13.27 7.38-13.27 11.74s4.98 8.72 13.27 11.73zM2143.65 1014.7l-1.03-3.06c8.88-3 14.18-7.48 14.18-12.04 0-4.56-5.3-9.05-14.18-12.07l1.03-3.02c10.4 3.5 16.35 9.03 16.35 15.1 0 6.06-5.96 11.56-16.35 15.1z" stroke="#fff" stroke-opacity="0" stroke-width="2" fill="#fff"/><use xlink:href="#u" transform="matrix(1,0,0,1,2030,1069) translate(29.52777777777777 16)"/><use xlink:href="#v" transform="matrix(1,0,0,1,2030,1069) translate(108.36111111111111 16)"/><path d="M1497.75 520.9h80v80h-80v-80z" stroke="#fff" stroke-opacity="0" stroke-width="2" fill="#d86613"/><path d="M1536.68 537.88v10.22h2.14v-10.22l4.96 4.96 1.5-1.5-6.78-6.8c-.42-.42-1.1-.4-1.5 0l-6.8 6.8 1.5 1.5zM1538.82 583.92V573.7h-2.14v10.22l-4.97-4.97-1.5 1.5 6.8 6.8c.42.43 1.1.4 1.5 0l6.8-6.78-1.52-1.52zM1545.2 552.53v-2.3h-2.12v2.13h-2.13v-2.13h-2.13v2.13h-2.14v-2.13h-2.13v2.13h-2.13v-2.13h-2.14v2.3c-.42.2-.72.5-.92.9h-2.28v2.13h2.13v2.14h-2.12v2.13h2.13v2.13h-2.12v2.13h2.13v2.13h-2.12v2.13h2.28c.2.43.5.73.92.92v2.28h2.13v-2.13h2.15v2.13h2.13v-2.13h2.13l.02 2.13h2.13v-2.13h2.13v2.13h2.13v-2.28c.44-.2.74-.5.9-.92h2.32v-2.13h-2.14v-2.13h2.13v-2.14h-2.12v-2.13h2.13v-2.13h-2.12v-2.14h2.13v-2.13h-2.29c-.16-.4-.46-.7-.88-.9zm-1.05 14.76h-12.8v-12.8h12.8zM1517.77 553.43l-1.5 1.5 4.95 4.9h-10.14v2.13h10.24l-5.05 5.04 1.5 1.5 6.8-6.78c.2-.2.3-.45.3-.75s-.1-.54-.3-.75zM1564.4 559.82h-10.07l4.9-4.88-1.5-1.5-6.8 6.77c-.2.23-.3.48-.3.77 0 .3.1.54.3.75l6.8 6.8 1.5-1.52-5.05-5.03h10.23z" stroke="#fff" stroke-opacity="0" stroke-width="2" fill="#fff"/><use xlink:href="#w" transform="matrix(1,0,0,1,1467.7479941963238,609.9053924770739) translate(13.944444444444443 16)"/><use xlink:href="#x" transform="matrix(1,0,0,1,1467.7479941963238,609.9053924770739) translate(60.611111111111114 16)"/><path d="M737.25-410h120v120h-120v-120z" stroke="#fff" stroke-opacity="0" fill="#693cc5"/><path d="M814.86-311.58c-.36 0-.64-.15-.93-.3-.44-.3-.68-.77-.68-1.3v-73.63c0-.55.3-1.08.77-1.4.48-.3 1.1-.3 1.6-.07l20.8 10.22c.56.23.9.77.9 1.38v56.56c.02.76-.4 1.37-1.1 1.6l-20.8 6.92h-.56zm1.62-72.62v68.78l17.6-5.84v-54.4zM779.64-311.58h-.5l-20.8-6.92c-.68-.23-1.1-.92-1.1-1.6v-56.57c0-.6.35-1.15.9-1.38l20.8-10.22c.53-.23 1.1-.23 1.6.08.5.3.76.85.76 1.4v73.6c0 .54-.24 1-.67 1.3-.3.24-.6.32-1 .32zm-19.2-9.6l17.6 5.83v-68.85l-17.6 8.6z" stroke="#fff" stroke-opacity="0" fill="#fff"/><path d="M813.25-366h-4.8v-3.2h4.8zm-9.6 0h-4.8v-3.2h4.8zm-9.58 0h-4.8v-3.2h4.8zm-9.6 0h-4.82v-3.2h4.8zM813.25-330.8h-4.8v-3.2h4.8zm-9.6 0h-4.8v-3.2h4.8zm-9.58 0h-4.8v-3.2h4.8zm-9.6 0h-4.82v-3.2h4.8zM790.23-344.5l-6.02-5.13c-.66-.57-.74-1.6-.17-2.26l.18-.17 6-5.13 2.1 2.43-4.6 3.97 4.6 3.92zM804.3-344.5l-2.1-2.42 4.58-3.88-4.58-3.9 2.07-2.5 6.02 5.12c.67.57.74 1.6.17 2.26-.06.06-.1.12-.18.17z" stroke="#fff" stroke-opacity="0" fill="#fff"/><path d="M792.55-341.13l6.35-18.8 3.04 1.03-6.36 18.8-3.03-1.03z" stroke="#fff" stroke-opacity="0" stroke-width=".32" fill="#fff"/><use xlink:href="#u" transform="matrix(1,0,0,1,707.2520058036763,-281) translate(34.472222222222214 16)"/><use xlink:href="#y" transform="matrix(1,0,0,1,707.2520058036763,-281) translate(113.30555555555556 16)"/><use xlink:href="#q" transform="matrix(1,0,0,1,707.2520058036763,-281) translate(50.583333333333336 40)"/><path d="M495-346.74c0 31.8-25.76 57.63-57.5 57.63S380-314.93 380-346.75c0-31.8 25.76-57.63 57.5-57.63s57.5 25.82 57.5 57.63z" fill="#9d5025"/><path d="M380-351.47h115v4.73H380v-4.73z" fill="#9d5025"/><path d="M495-351.46c0 31.8-25.76 57.63-57.5 57.63S380-319.65 380-351.46c0-31.82 25.76-57.64 57.5-57.64s57.5 25.82 57.5 57.64z" fill="#f58536"/><path d="M474.9-323.13l-4.48-11.8-9.97 3.84-14.23-37.4-3.97-10.35-1.88-4.9-2.9-7.64h-18.92v12.55h10.26l3.63 9.34-29.76 53.02h14.37l21.16-37.8 15.03 39.4 3.6-1.37 8.1-3.06 9.97-3.83z" fill="#fff"/><use xlink:href="#z" transform="matrix(1,0,0,1,380,-289.0946075229262) translate(36.97222222222222 16)"/><use xlink:href="#A" transform="matrix(1,0,0,1,380,-289.0946075229262) translate(21.416666666666664 40)"/><use xlink:href="#B" transform="matrix(1,0,0,1,380,-289.0946075229262) translate(22.52777777777778 64)"/><path d="M40-399.1h120v120H40v-120z" stroke="#000" stroke-opacity="0" fill="#e7157b"/><path d="M65.6-342.06c1.64 0 2.96 1.33 2.96 2.96 0 1.64-1.32 2.97-2.97 2.97-1.66 0-3.07-1.33-3.07-2.97 0-1.63 1.4-2.96 3.06-2.96zm35.98 39c-17.5 0-32.6-12.87-35.75-30.03 2.65-.14 4.88-2.02 5.54-4.5h9.24v-2.98h-9.23c-.66-2.5-2.9-4.37-5.54-4.52 3.14-16.93 18.5-30.03 35.75-30.03 6.53 0 13.3 2.5 20.15 7.25l1.73-2.42c-7.43-5.14-14.78-7.8-21.88-7.8-19.07 0-36.08 14.83-38.88 33.78-1.9 1-3.14 2.96-3.14 5.22 0 2.27 1.24 4.22 3.14 5.23 2.8 19.27 19.48 33.77 38.88 33.77 8.1 0 16.43-2.72 23.37-7.8l-1.74-2.4c-6.43 4.67-14.1 7.24-21.62 7.24zM85.24-344.4c2.8.63 6.27.78 8.83.78 2.48 0 5.78-.15 8.5-.7l-6.85 13.57c-.08.16-.16.4-.16.63v6.7c-1.16.78-3.22 2.03-4.46 2.27v-8.98c0-.15-.08-.38-.17-.54l-5.7-13.73zm8.83-5.23c6.03 0 9.25.94 10.32 1.56-1.08.55-4.3 1.5-10.33 1.5s-9.25-.95-10.24-1.5c1-.62 4.2-1.56 10.24-1.56zM89.6-318.1h1.66c1.82-.25 4.2-1.65 6.2-2.98l.4-.23c.5-.32.75-.8.75-1.26v-7.18l8.35-16.7c.4-.45.66-1 .66-1.63 0-3.97-8.5-4.52-13.53-4.52-5.04 0-13.46.56-13.46 4.54 0 .54.18 1 .43 1.4l7 16.85v10.2c0 .86.76 1.5 1.58 1.5zm43.52-1.5c1.65 0 2.97 1.33 2.97 2.97 0 1.7-1.33 3.04-2.98 3.04s-2.97-1.3-2.97-3.03c0-1.64 1.32-2.97 2.97-2.97zm0-45c1.65 0 2.97 1.33 2.97 3.04 0 1.64-1.33 2.96-2.98 2.96s-2.97-1.32-2.97-2.96c0-1.7 1.32-3.04 2.97-3.04zm2.97 22.54c1.64 0 3.05 1.33 3.05 2.96 0 1.64-1.4 2.97-3.06 2.97-1.66 0-2.98-1.33-2.98-2.97 0-1.63 1.32-2.96 2.97-2.96zm-15.03 4.45h9.24c.67 2.56 3 4.5 5.8 4.5 3.3 0 6.02-2.72 6.02-6 0-3.27-2.72-6-6.03-6-2.8 0-5.13 1.95-5.8 4.52h-9.23v-19.5h6.27c.66 2.58 2.97 4.45 5.78 4.45 3.3 0 6.03-2.65 6.03-5.93 0-3.35-2.73-6-6.03-6-2.8 0-5.12 1.87-5.78 4.44h-7.76c-.82 0-1.48.7-1.48 1.56v20.98h-10.5v2.97h10.5v20.97c0 .86.66 1.56 1.48 1.56h7.76c.66 2.57 2.97 4.44 5.78 4.44 3.3 0 6.03-2.65 6.03-6 0-3.28-2.73-5.93-6.03-5.93-2.8 0-5.12 1.87-5.78 4.45h-6.27v-19.5z" stroke="#000" stroke-opacity="0" fill="#fff"/><use xlink:href="#u" transform="matrix(1,0,0,1,10,-270.0946075229262) translate(30.05555555555555 16)"/><use xlink:href="#C" transform="matrix(1,0,0,1,10,-270.0946075229262) translate(108.88888888888889 16)"/><path d="M797.25 119.5v-323.12" stroke="#333" fill="none"/><path d="M797.73 120h-.95v-.5h.95z" stroke="#333" stroke-width=".05" fill="#333"/><path d="M797.25-218.38l4.64 14.26h-9.28z" stroke="#333" fill="#333"/><path d="M736.75-338.53h-226" stroke="#333" fill="none"/><path d="M737.25-338.06h-.5v-.94h.5z" stroke="#333" stroke-width=".05" fill="#333"/><path d="M496-338.53l14.25-4.64v9.28z" stroke="#333" fill="#333"/><path d="M379.58-344.76h-203.2" stroke="#333" fill="none"/><path d="M380.1-344.3h-.54v-.94h.5z" stroke="#333" stroke-width=".05" fill="#333"/><path d="M161.62-344.76l14.26-4.64v9.27z" stroke="#333" fill="#333"/><path d="M1614.13 180h429.5" stroke="#333" fill="none"/><path d="M1599.37 180l14.26-4.63v9.26zM2058.38 180l-14.26 4.63v-9.26z" stroke="#333" fill="#333"/><path d="M.5 570.06h99.4a.1.1 0 0 0 .1-.1.1.1 0 0 1 .1-.13h83.52" stroke="#333" fill="none"/><path d="M.5 570.53H0l.02-.47-.02-.48H.5z" stroke="#333" stroke-width=".05" fill="#333"/><path d="M198.38 569.83l-14.26 4.64v-9.27z" stroke="#333" fill="#333"/><path d="M2600 510.06h120v120h-120v-120z" stroke="#fff" stroke-opacity="0" stroke-width="2" fill="#d6242d"/><path d="M2678.13 590.5l2.27-2.27 19.13 19.12-2.27 2.27-19.13-19.13zM2620.47 532.8l2.25-2.25 21.2 21.2-2.24 2.26-21.2-21.2zM2625.27 602.6l11.2-11.2 2.26 2.27-11.2 11.2-2.26-2.25zM2681.27 546.6l11.2-11.2 2.26 2.26-11.2 11.2-2.26-2.26z" stroke="#fff" stroke-opacity="0" stroke-width="1.41" fill="#fff"/><path d="M2696.74 568.5c-.32-7.5-2.5-13.84-6.9-19.9l-2.6 1.88c4 5.5 5.98 11.2 6.3 18h-3.2v3.2h3.2c-.28 6.84-2.27 12.57-6.3 18.13l2.6 1.86c4.42-6.12 6.62-12.45 6.9-20h3.2v-3.22zM2640.34 542.9c5.53-4.02 11.24-6 18.06-6.3v3.1h3.2v-3.1c6.82.3 12.53 2.28 18.06 6.3l1.94-2.6c-6.13-4.42-12.44-6.6-20-6.9v-3.3h-3.2v3.3c-7.56.3-13.87 2.48-20 6.9zM2679.66 597.4c-5.53 3.98-11.24 5.98-18.06 6.28v-3.2h-3.2v3.2c-6.82-.3-12.53-2.3-18.06-6.3l-1.94 2.6c6.13 4.42 12.44 6.6 20 6.9v3.2h3.2v-3.2c7.56-.3 13.87-2.48 20-6.9zM2630.16 591.66l2.6-1.9c-4.03-5.5-6.02-11.25-6.3-18.1h3.2v-3.2h-3.2c.32-6.8 2.3-12.5 6.3-18l-2.6-1.9c-4.4 6.07-6.58 12.4-6.9 19.9h-3.2v3.2h3.2c.28 7.54 2.48 13.88 6.9 20zM2667.84 548.85c-2.3-1.9-4.86-2.8-7.84-2.76-6.18 0-11.2 4.35-11.2 9.75v7.82h-3.2c-.9 0-1.6.74-1.6 1.6v22.42c0 .42.16.8.48 1.12.3.3.67.47 1.12.47h28.8c.9 0 1.6-.74 1.6-1.6v-22.43c0-.43-.16-.78-.45-1.08-.32-.36-.7-.53-1.15-.53h-3.2v-7.82c-.03-2.8-1.18-5.22-3.36-7zm-15.84 7c0-3.63 3.62-6.56 8-6.56 2.18-.06 4.06.6 5.76 1.97 1.44 1.17 2.2 2.73 2.27 4.58v7.82h-16zm20.8 15.86h-4.8v3.2h4.8v3.2h-4.8v3.2h4.8v4.8h-25.6v-19.23h25.6z" stroke="#fff" stroke-opacity="0" stroke-width="2" fill="#fff"/><path d="M2658.4 578.47v4.42h3.2v-4.43c1.35-.48 2.3-1.44 2.8-2.8.9-2.44-.37-5.13-2.8-6-2.43-.9-5.13.37-6 2.8-.9 2.43.37 5.12 2.8 6zm1.6-6.1c.96-.02 1.74.75 1.74 1.7 0 .96-.75 1.74-1.7 1.75-.96 0-1.75-.75-1.76-1.7v-.07c0-.93.78-1.68 1.72-1.68z" stroke="#fff" stroke-opacity="0" stroke-width="2" fill="#fff"/><use xlink:href="#D" transform="matrix(1,0,0,1,2570,639.0586388888888) translate(30.97222222222222 16)"/><use xlink:href="#E" transform="matrix(1,0,0,1,2570,639.0586388888888) translate(81.30555555555554 16)"/><use xlink:href="#F" transform="matrix(1,0,0,1,2570,639.0586388888888) translate(50.61111111111111 40)"/><path d="M1997.25 68a8 8 0 0 1 8-8h224a8 8 0 0 1 8 8v44a8 8 0 0 1-8 8h-224a8 8 0 0 1-8-8z" fill="none"/><use xlink:href="#G" transform="matrix(1,0,0,1,1997.2520058036762,60) translate(81.85185185185185 34.44444444444444)"/><path d="M2000 1108a8 8 0 0 1 8-8h224a8 8 0 0 1 8 8v44a8 8 0 0 1-8 8h-224a8 8 0 0 1-8-8z" fill="none"/><use xlink:href="#H" transform="matrix(1,0,0,1,2000,1100) translate(66.94444444444443 34.44444444444444)"/><path d="M2120 296.38v627.24" stroke="#333" fill="none"/><path d="M2120 281.62l4.64 14.26h-9.28zM2120 938.38l-4.64-14.26h9.28z" stroke="#333" fill="#333"/><path d="M1712.88 570.06h870.73" stroke="#333" fill="none"/><path d="M1698.12 570.06l14.26-4.64v9.27zM2598.38 570.06l-14.27 4.63v-9.28z" stroke="#333" fill="#333"/><path d="M200 523.47h80v20.75h-80v-20.75z" fill="#9d5025"/><path d="M200 520.9h80v20.2h-80v-20.2z" fill="#f58536"/><path d="M200 550.4h80v21.68h-80V550.4z" fill="#9d5025"/><path d="M200 548.76h80v20.2h-80v-20.2z" fill="#f58536"/><path d="M200 577.77h80v20.98h-80v-20.98z" fill="#9d5025"/><path d="M200 575.42h80v20.2h-80v-20.2z" fill="#f58536"/><path d="M209.83 537.03h-1.8v-8.93h-2.4v-1.26h.22c1.1 0 2.33-.28 2.67-1.85v-.25h1.3zm10.3-10.5c-2.13 3.26-3.23 6.55-3.57 10.5h-1.93c.42-3.9 1.58-7.12 3.78-10.28h-5v-1.78h6.73zm8.17 10.5h-6.66c0-5.35 4.8-5.23 4.8-9.04 0-1.02-.4-1.87-1.44-1.87-1.37 0-1.58 1.26-1.58 2.53h-1.7c0-2.45.88-3.97 3.35-3.97 1.58-.23 3.02.96 3.23 2.63v.64c0 4.08-3.7 4.34-4.6 7.36h4.6zm3.9 0h-1.84v-2.28h1.85zm6.67 0h-1.85v-8.93h-2.4v-1.26h.2c1.1 0 2.4-.28 2.68-1.85v-.25h1.37zm6.87.24c-2.88 0-3.43-2.36-3.43-5.9 0-3.52.63-6.66 3.58-6.66 2.06 0 3.1 1 3.1 3h-1.8c0-.7-.34-1.6-1.23-1.6-1.72 0-1.8 2.45-1.8 4.25.5-.86 1.3-1.33 2.2-1.26 1.6 0 2.82 1.25 2.82 3.65.07 2.84-1.03 4.54-3.43 4.54zm7.28-.24h-1.86v-2.28h1.86zm5.35.24c-2.2 0-3.43-1.5-3.43-6.3 0-4.83 1.17-6.32 3.43-6.32 2.2 0 3.37 1.5 3.37 6.32 0 4.8-1.17 6.32-3.37 6.32zm7.14-.24h-1.77v-2.28h1.85zm5.37.24c-2.2 0-3.43-1.5-3.43-6.3 0-4.83 1.23-6.32 3.43-6.32 2.27 0 3.43 1.5 3.43 6.32 0 4.8-1.16 6.32-3.36 6.32zM270.9 552.6c2.2 0 3.44 1.5 3.44 6.33 0 4.82-1.16 6.3-3.43 6.3-2.2 0-3.43-1.53-3.43-6.34 0-4.82 1.24-6.28 3.44-6.28zm-7.14 10.02h1.86v2.34h-1.93zm-8.24-7.92h.14c1.1 0 2.4-.28 2.68-1.84v-.25h1.37v12.36h-1.9v-8.98h-2.35zm-4.33 7.92h1.85v2.34h-1.93zm-5.23-10c2 0 3.1.96 3.1 2.98h-1.93c0-.7-.28-1.6-1.17-1.6-1.72 0-1.8 2.45-1.8 4.24.43-.85 1.25-1.32 2.2-1.26 1.6 0 2.83 1.26 2.83 3.67 0 2.85-1.1 4.52-3.5 4.52-2.9 0-3.44-2.36-3.44-5.9 0-3.53.7-6.65 3.7-6.65zm-11.27 2.08h.14c1.1 0 2.4-.28 2.68-1.84v-.25h1.37v12.36h-1.86v-8.98h-2.4zm-4.33 7.92h1.86v2.34h-1.86zM225 554c-1.36 0-1.57 1.27-1.57 2.53h-1.7c0-2.45.88-3.97 3.35-3.97 1.58-.2 3.03.98 3.16 2.65.07.23.07.42.07.64 0 4.1-3.7 4.34-4.6 7.35h4.6v1.76h-6.65c0-5.35 4.8-5.22 4.8-9.07 0-1.04-.4-1.9-1.44-1.9zm-11.6-1.14h6.74v1.56c-2.13 3.26-3.23 6.55-3.58 10.5h-1.92c.4-3.9 1.58-7.12 3.78-10.3h-5.02zm-7.7 1.84h.15c1.1 0 2.4-.28 2.68-1.84v-.25h1.37v12.36h-1.86v-8.98h-2.4zM270.9 579.3c2.2 0 3.44 1.48 3.44 6.3 0 4.83-1.16 6.32-3.43 6.32-2.2 0-3.43-1.58-3.43-6.35 0-4.78 1.24-6.27 3.44-6.27zm-7.14 10h1.86v2.3h-1.93zm-5.36-8.62c-1.37 0-1.58 1.27-1.58 2.53h-1.78c0-2.44.96-3.96 3.36-3.96 1.6-.2 3.03.98 3.23 2.65v.62c0 4.08-3.7 4.34-4.6 7.35h4.67v1.73h-6.66c0-5.35 4.74-5.23 4.74-9.07 0-1-.34-1.85-1.38-1.85zm-7.2 8.62h1.85v2.3h-1.93zm-5.23-10c2 0 3.1.96 3.1 2.98h-1.93c0-.7-.28-1.6-1.17-1.6-1.72 0-1.8 2.45-1.8 4.24.43-.85 1.25-1.32 2.2-1.26 1.6 0 2.83 1.26 2.83 3.67 0 2.85-1.1 4.52-3.5 4.52-2.9 0-3.44-2.36-3.44-5.9 0-3.53.7-6.65 3.7-6.65zm-11.27 2.08h.14c1.1 0 2.4-.28 2.68-1.84v-.24h1.37v12.3h-1.86v-8.96h-2.4zm-4.33 7.92h1.86v2.3h-1.86zm-5.36-8.62c-1.36 0-1.57 1.27-1.57 2.53h-1.7c0-2.44.88-3.96 3.35-3.96 1.58-.2 3.03.98 3.16 2.65.07.22.07.4.07.62 0 4.08-3.7 4.34-4.6 7.35h4.6v1.73h-6.65c0-5.35 4.8-5.23 4.8-9.07 0-1-.4-1.85-1.44-1.85zm-11.6-1.14h6.74v1.56c-2.13 3.26-3.23 6.55-3.58 10.5h-1.92c.4-3.9 1.58-7.12 3.78-10.28h-5.02zm-7.76 1.84h.2c1.1 0 2.4-.28 2.7-1.84v-.24h1.3v12.3h-1.8v-8.96h-2.4z" fill="#fff"/><path d="M258.35 526.3c-1.25 0-1.57 1.27-1.57 4.9 0 3.62.32 4.88 1.57 4.88 1.26 0 1.58-1.26 1.58-4.9 0-3.6-.32-4.87-1.58-4.87zM270.92 526.3c-1.25 0-1.58 1.27-1.58 4.9 0 3.62.33 4.88 1.58 4.88s1.58-1.26 1.58-4.9c0-3.6-.33-4.87-1.58-4.87zM270.92 563.95c1.25 0 1.58-1.26 1.58-4.88 0-3.63-.33-4.9-1.58-4.9s-1.58 1.27-1.58 4.9c0 3.62.3 4.88 1.58 4.88zM245.9 563.95c1.12 0 1.5-1.26 1.5-2.64 0-1.7-.46-2.65-1.5-2.65-1.34 0-1.58 1.26-1.58 2.75 0 1.5.45 2.55 1.58 2.55zM270.92 590.63c1.25 0 1.58-1.26 1.58-4.88 0-3.63-.33-4.9-1.58-4.9s-1.58 1.27-1.58 4.9c0 3.62.3 4.88 1.58 4.88zM245.9 590.63c1.12 0 1.5-1.26 1.5-2.64 0-1.7-.46-2.67-1.5-2.67-1.34 0-1.58 1.26-1.58 2.75 0 1.5.45 2.55 1.58 2.55zM245.9 536.08c1.12 0 1.5-1.26 1.5-2.64 0-1.7-.46-2.66-1.5-2.66-1.34 0-1.58 1.26-1.58 2.75 0 1.5.45 2.55 1.58 2.55z" fill="#f58536"/><use xlink:href="#I" transform="matrix(1,0,0,1,200,598.7619361898304) translate(17.25 16)"/><use xlink:href="#J" transform="matrix(1,0,0,1,200,598.7619361898304) translate(18.361111111111114 40)"/><path d="M760 516.2h80v80h-80v-80z" stroke="#fff" stroke-opacity="0" stroke-width="2" fill="#d86613"/><path d="M798.93 533.18v10.22h2.14v-10.22l4.96 4.97 1.5-1.5-6.78-6.8c-.42-.42-1.1-.4-1.5 0l-6.8 6.8 1.52 1.5zM801.07 579.23V569h-2.14v10.23l-4.96-4.97-1.5 1.5 6.78 6.8c.42.43 1.1.4 1.5 0l6.8-6.8-1.52-1.5zM807.47 547.84v-2.3h-2.14v2.13h-2.13v-2.13h-2.13v2.13h-2.14v-2.13h-2.13v2.13h-2.13v-2.13h-2.14v2.3c-.42.2-.72.5-.9.9h-2.3v2.13h2.14V553h-2.14v2.13h2.14v2.14h-2.14v2.13h2.14v2.13h-2.14v2.14h2.3c.18.43.48.72.9.92v2.27h2.14v-2.13h2.13v2.13h2.13v-2.13h2.14v2.13h2.13v-2.13h2.13v2.13h2.14v-2.28c.42-.2.72-.5.9-.93h2.3v-2.13h-2.14v-2.14h2.14v-2.13h-2.14v-2.13h2.14V553h-2.14v-2.13h2.14v-2.13h-2.3c-.18-.4-.48-.7-.9-.9zm-1.07 14.76h-12.8v-12.8h12.8zM780.02 548.74l-1.5 1.5 4.95 4.9h-10.14v2.13h10.24l-5.05 5.04 1.5 1.52 6.8-6.8c.2-.2.3-.44.3-.74s-.1-.55-.3-.76zM826.67 555.13H816.6l4.88-4.9-1.5-1.5-6.8 6.8c-.2.2-.3.46-.3.75 0 .3.1.54.3.75l6.8 6.8 1.5-1.52-5.05-5.03h10.24z" stroke="#fff" stroke-opacity="0" stroke-width="2" fill="#fff"/><use xlink:href="#w" transform="matrix(1,0,0,1,730,605.2118589642625) translate(13.944444444444443 16)"/><use xlink:href="#x" transform="matrix(1,0,0,1,730,605.2118589642625) translate(60.611111111111114 16)"/><path d="M740 920h120v120H740V920z" stroke="#fff" stroke-opacity="0" stroke-width="2" fill="#d86613"/><path d="M836.8 984.8h-8.02v-3.18h8.02v-38.44h-38.43v8.02h-3.2v-8.02c0-1.75 1.45-3.18 3.2-3.18h38.43c1.75 0 3.18 1.43 3.18 3.18v38.44c0 1.75-1.43 3.18-3.18 3.18zM801.6 1020h-38.44c-1.74 0-3.18-1.43-3.18-3.18v-38.44c0-1.75 1.44-3.18 3.18-3.18h8.02v3.18h-8v38.44h38.42v-8.02h3.18v8.02c0 1.75-1.43 3.18-3.18 3.18z" stroke="#fff" stroke-opacity="0" stroke-width="2" fill="#fff"/><path d="M825.6 965.6v-3.2h-4.8c-.12-1.7-1.5-3.08-3.2-3.2v-4.8h-3.2v4.8h-4.77v-4.8h-3.23v4.8h-4.8v-4.8h-3.2v4.8h-4.8v-4.8h-3.17v4.8h-4.82v-4.8h-3.2v4.8c-1.7.12-3.08 1.5-3.2 3.2h-4.8v3.2h4.8v4.83h-4.8v3.17h4.8v4.8h-4.8v3.2h4.8v4.8h-4.8v3.23h4.8v4.76h-4.8v3.2h4.8c.12 1.7 1.5 3.08 3.2 3.2v4.8h3.2v-4.8h4.83v4.8h3.17v-4.8h4.8v4.8h3.2v-4.8h4.8v4.8h3.23v-4.8h4.76v4.8h3.2v-4.8c1.7-.12 3.08-1.5 3.2-3.2h4.8v-3.2h-4.8v-4.77h4.8v-3.23h-4.8v-4.8h4.8v-3.2h-4.8v-4.8h4.8v-3.17h-4.8v-4.82zm-8 31.7c0 .16-.14.3-.3.3h-34.6c-.16 0-.3-.14-.3-.3v-34.6c0-.16.14-.3.3-.3h34.6c.16 0 .3.14.3.3z" stroke="#fff" stroke-opacity="0" stroke-width="2" fill="#fff"/><use xlink:href="#r" transform="matrix(1,0,0,1,710,1049) translate(27.861111111111107 16)"/><use xlink:href="#s" transform="matrix(1,0,0,1,710,1049) translate(113.30555555555557 16)"/><path d="M560 562.02c0 26.5-22.4 48.03-50 48.03s-50-21.52-50-48.03c0-26.5 22.4-48.02 50-48.02s50 21.5 50 48.02z" fill="#9d5025"/><path d="M560 558.08c0 26.5-22.4 48.03-50 48.03s-50-21.5-50-48.02c0-26.5 22.4-48.02 50-48.02s50 21.5 50 48.02z" fill="#f58536"/><path d="M524.58 519.3v17.43H495.4V519.3h29.18zM547.15 569.76v14.2h-14.78v-14.2h14.78zM528.46 569.76v14.2h-14.78v-14.2h14.78zM505.7 569.76v14.2h-14.78v-14.2h14.78zM487 569.76v14.2h-14.78v-14.2H487z" fill="#fff"/><path d="M478.28 557.47h2.66v13.93h-2.66v-13.93z" fill="#fff"/><path d="M478.28 557.47h21.36v2.55h-21.36v-2.55z" fill="#fff"/><path d="M496.98 557.47h2.66v13.93h-2.66v-13.93zM519.74 557.47h2.66v13.93h-2.66v-13.93z" fill="#fff"/><path d="M519.74 557.47h21.36v2.55h-21.36v-2.55z" fill="#fff"/><path d="M538.44 557.47h2.66v13.93h-2.66v-13.93zM487.65 547.52h2.66v11.22h-2.65v-11.22zM508.66 534.16h2.66v13.57h-2.66v-13.57z" fill="#fff"/><path d="M487.65 546.45h44.15V549h-44.15v-2.55z" fill="#fff"/><path d="M529.14 547.52h2.66v11.22h-2.66v-11.22z" fill="#fff"/><use xlink:href="#K" transform="matrix(1,0,0,1,460,610.0586388888888) translate(6.074999999999996 14.4)"/><use xlink:href="#L" transform="matrix(1,0,0,1,460,610.0586388888888) translate(30 36)"/><use xlink:href="#M" transform="matrix(1,0,0,1,460,610.0586388888888) translate(14.549999999999997 57.6)"/><path d="M1240 552.87c0 26.5-22.4 48.02-50 48.02s-50-21.52-50-48.03c0-26.5 22.4-48.02 50-48.02s50 21.5 50 48.02z" fill="#9d5025"/><path d="M1240 548.93c0 26.5-22.4 48.03-50 48.03s-50-21.52-50-48.03c0-26.5 22.4-48.02 50-48.02s50 21.52 50 48.03z" fill="#f58536"/><path d="M1204.58 510.13v17.45h-29.18v-17.45h29.18zM1227.15 560.6v14.2h-14.78v-14.2h14.78zM1208.46 560.6v14.2h-14.78v-14.2h14.78zM1185.7 560.6v14.2h-14.78v-14.2h14.78zM1167 560.6v14.2h-14.78v-14.2H1167z" fill="#fff"/><path d="M1158.28 548.32h2.66v13.92h-2.66v-13.92z" fill="#fff"/><path d="M1158.28 548.32h21.36v2.54h-21.36v-2.54z" fill="#fff"/><path d="M1176.98 548.32h2.66v13.92h-2.66v-13.92zM1199.74 548.32h2.66v13.92h-2.66v-13.92z" fill="#fff"/><path d="M1199.74 548.32h21.36v2.54h-21.36v-2.54z" fill="#fff"/><path d="M1218.44 548.32h2.66v13.92h-2.66v-13.92zM1167.65 538.37h2.66v11.22h-2.65v-11.24zM1188.66 525h2.66v13.58h-2.66V525z" fill="#fff"/><path d="M1167.65 537.3h44.15v2.55h-44.15v-2.56z" fill="#fff"/><path d="M1209.14 538.37h2.66v11.22h-2.66v-11.24z" fill="#fff"/><use xlink:href="#K" transform="matrix(1,0,0,1,1140,600.9053924770739) translate(6.074999999999996 14.4)"/><use xlink:href="#L" transform="matrix(1,0,0,1,1140,600.9053924770739) translate(30 36)"/><use xlink:href="#M" transform="matrix(1,0,0,1,1140,600.9053924770739) translate(14.549999999999997 57.6)"/><path d="M280.5 563.3h89.4a.1.1 0 0 1 .13.12.1.1 0 0 0 .1.1h73.54" stroke="#333" fill="none"/><path d="M280.5 563.78h-.5v-.95h.5z" stroke="#333" stroke-width=".05" fill="#333"/><path d="M458.44 563.53l-14.27 4.64v-9.27z" stroke="#333" fill="#333"/><path d="M1020.5 556.2h103.24M1020.5 556.2h-.5" stroke="#333" fill="none"/><path d="M1138.5 556.2l-14.26 4.65v-9.27z" stroke="#333" fill="#333"/><path d="M-199.53 403.62h-.94V69.52h.94zM39.5-338.62h-227.48l-1.82.14-1.76.43-1.67.7-1.54.93-1.38 1.18-1.17 1.37-.95 1.54-.7 1.67-.4 1.76-.16 1.82v366h-.94v-366.03l.15-1.95.45-1.9.75-1.8 1.03-1.68 1.28-1.5 1.5-1.26 1.66-1 1.8-.76 1.9-.46 1.94-.15H39.5z" stroke="#333" stroke-width=".05" fill="#333"/><path d="M40-338.62h-.5v-.95h.5z" fill="#333"/><path stroke="#333" stroke-width=".05" fill="#333"/><path d="M-200 418.38l-4.63-14.26h9.26z" fill="#333"/><path d="M-200 419.92l-5.3-16.28h10.6zm-3.98-15.33l3.98 12.25 3.98-12.26z" stroke="#333" stroke-width=".05" fill="#333"/><path d="M-234.43 54.2a14.8 14.8 0 0 1 14.8-14.8h39.25a14.8 14.8 0 0 1 14.8 14.8 14.8 14.8 0 0 1-14.8 14.8h-39.25a14.8 14.8 0 0 1-14.8-14.8z" stroke="#333" fill-opacity="0"/><use xlink:href="#N" transform="matrix(1,0,0,1,-222.425,43.41338788765519) translate(0.004999999999999005 14.4)"/><path d="M1210-410h120v120h-120v-120z" stroke="#fff" stroke-opacity="0" fill="#cc2264"/><path d="M1260.38-333.2h-17.6c-1.84-.05-3.44-.53-5.04-1.48-5.04-3.12-7.84-8.3-7.76-14.27-.32-6.8 3.92-12.73 10.4-14.63v-1.27c.24-8.5 4.8-15.7 12.56-19.34 8.24-3.63 17.37-1.84 23.6 4.7 2.17 2.18 3.6 4.3 4.8 7.04 1.77-1.37 3.7-2.06 5.93-2.06 4.32 0 9.28 3.28 10.16 10.52 4.08 1 12.56 4.33 12.56 15.2.23 5.72-2.57 10.74-7.6 13.43l-1.6-2.8c4-2.16 6.15-6.13 5.9-10.62 0-9.4-7.75-11.72-11.2-12.3-.4-.1-.8-.3-1.03-.7-.24-.3-.32-.72-.24-1.15-.48-5.8-3.84-8.4-7.04-8.4-2.17.05-3.93 1-5.2 2.75-.33.47-.9.7-1.53.63-.56-.1-1.04-.47-1.28-1.05-1.05-3.23-2.65-5.76-4.98-8.2-5.36-5.5-13.04-7.02-20.08-3.96-6.4 3.12-10.32 9.14-10.56 16.28 0 .8.08 1.48.16 2.22.08.84-.48 1.63-1.28 1.8-5.68 1.15-9.6 6.18-9.28 11.93-.16 4.87 2.16 9.04 6.32 11.52 1.04.7 2.08 1 3.28 1h17.6z" stroke="#fff" stroke-opacity="0" fill="#fff"/><path d="M1308.23-323.6l-11.38-11.4c2.18-4.86 2.05-9.9-.37-14.64-4.28-8.35-14.53-11.68-22.86-7.37-8.33 4.26-11.66 14.5-7.38 22.8 4.28 8.35 14.48 11.67 22.86 7.4l11.2 11.18c1.1 1.13 2.42 1.62 3.97 1.62 1.55 0 2.9-.5 4-1.62h.05c2.14-2.24 2.14-5.8-.1-8zm-26.87-4.54c-7.6 0-13.75-6.15-13.75-13.74 0-7.58 6.16-13.74 13.76-13.74s13.76 6.16 13.76 13.74c0 7.6-6.15 13.74-13.76 13.74zM1306-317.9c-.96.9-2.5.9-3.46 0l-10.66-10.7c1.37-1.07 2.4-2.14 3.42-3.58l10.7 10.82c.95.94.95 2.47 0 3.46z" stroke="#fff" stroke-opacity="0" fill="#fff"/><path d="M1285.76-349.3l-1.9 2.56c-1.2-.88-2.53-1.2-4-1-2.94.43-4.98 3.18-4.54 6.12.2 1.5.9 2.73 2.13 3.62l-1.85 2.5c-3.76-2.9-4.47-8.3-1.57-12.05 2.82-3.67 8.02-4.46 11.8-1.76z" stroke="#fff" stroke-opacity="0" fill="#fff"/><use xlink:href="#O" transform="matrix(1,0,0,1,1180,-281) translate(5.924999999999997 14.4)"/><use xlink:href="#P" transform="matrix(1,0,0,1,1180,-281) translate(76.875 14.4)"/><path d="M1346.38-350h269.2a12 12 0 0 1 12.02 12V62.12" stroke="#333" fill="none"/><path d="M1331.62-350l14.26-4.63v9.26zM1627.6 76.88l-4.64-14.26h9.27z" stroke="#333" fill="#333"/><path d="M1193.62-350h-282.4a12 12 0 0 0-12 12V62.12" stroke="#333" fill="none"/><path d="M1208.38-350l-14.26 4.63v-9.26zM899.22 76.88l-4.64-14.26h9.27z" stroke="#333" fill="#333"/><path d="M1270-410.5V-468a12 12 0 0 0-12-12H112a12 12 0 0 0-12 12v52.52" stroke="#333" fill="none"/><path d="M1270.47-410h-.94v-.5h.94z" stroke="#333" stroke-width=".05" fill="#333"/><path d="M100-400.7L95.36-415h9.28z" stroke="#333" fill="#333"/><path d="M510 509.56v-82.53a12 12 0 0 1 12-12h263.25a12 12 0 0 0 12-12V320.5" stroke="#333" fill="none"/><path d="M510.48 510.08l-.48-.02h-.48v-.5h.96zM797.73 320.5h-.95v-.5h.95z" stroke="#333" stroke-width=".05" fill="#333"/><path d="M797.25 320.5V360v-63.62" stroke="#333" fill="none"/><path d="M797.73 320.5h-.95v-.5h.95z" stroke="#333" stroke-width=".05" fill="#333"/><path d="M797.25 281.62l4.64 14.26h-9.28z" stroke="#333" fill="#333"/><path d="M510 610.55v142.47a12 12 0 0 0 12 12h266a12 12 0 0 1 12 12v126.6" stroke="#333" fill="none"/><path d="M510 610.05l.48-.02v.53h-.96v-.53z" stroke="#333" stroke-width=".05" fill="#333"/><path d="M800 918.38l-4.63-14.26h9.26z" stroke="#333" fill="#333"/><path d="M857.75 180H1008a12 12 0 0 1 12 12v776a12 12 0 0 1-12 12H860.5" stroke="#333" fill="none"/><path d="M857.76 180.47h-.5v-.94h.5zM860.5 980.48h-.5v-.96h.5z" stroke="#333" stroke-width=".05" fill="#333"/><path d="M1190 500.4v-77.95a12 12 0 0 1 12-12h323.25a12 12 0 0 0 12-12V320.5" stroke="#333" fill="none"/><path d="M1190.47 500.93l-.47-.03-.47.02v-.53h.94zM1537.73 320.5h-.95v-.5h.95z" stroke="#333" stroke-width=".05" fill="#333"/><path d="M1537.25 320.5V360v-63.62" stroke="#333" fill="none"/><path d="M1537.73 320.5h-.95v-.5h.95z" stroke="#333" stroke-width=".05" fill="#333"/><path d="M1537.25 281.62l4.64 14.26h-9.28z" stroke="#333" fill="#333"/><path d="M1190 601.4v147.05a12 12 0 0 0 12 12h321a12 12 0 0 1 12 12v131.17" stroke="#333" fill="none"/><path d="M1190 600.9l.47-.02v.53h-.94v-.53z" stroke="#333" stroke-width=".05" fill="#333"/><path d="M1535 918.38l-4.63-14.26h9.27z" stroke="#333" fill="#333"/><path d="M280 210c-22.08 0-40-17.92-40-40s17.92-40 40-40 40 17.92 40 40-17.92 40-40 40zm0-76.56c-20.24 0-36.56 16.32-36.56 36.56 0 20.24 16.32 36.56 36.56 36.56 20.24 0 36.56-16.32 36.56-36.56 0-20.24-16.32-36.56-36.56-36.56z" stroke="#fff" stroke-opacity="0" fill="#693cc5"/><path d="M284.8 192.45h-14.04v-3.42h12.33v-34.86h-12.34v-3.42h14.03c.93 0 1.7.75 1.7 1.7v38.3c0 .95-.77 1.7-1.7 1.7z" stroke="#fff" stroke-opacity="0" fill="#693cc5"/><path d="M270.42 169.9h30.3v3.4h-30.3v-3.4zM259.25 160.54c-.27 0-.5-.05-.73-.18-.6-.28-.97-.86-.97-1.52v-12.77c0-.67.36-1.24.97-1.53.6-.3 1.27-.23 1.8.2l7.97 6.38c.4.34.64.8.64 1.33s-.23 1-.65 1.33l-7.97 6.38c-.32.26-.67.38-1.08.38zm1.7-10.94v5.7l3.56-2.85zM259.25 179.7c-.27 0-.5-.06-.73-.2-.6-.27-.97-.85-.97-1.5V165.2c0-.68.36-1.24.97-1.53.6-.3 1.27-.24 1.8.18l7.97 6.4c.4.33.64.78.64 1.32 0 .53-.23 1-.65 1.32l-7.97 6.4c-.32.25-.67.37-1.08.37zm1.7-10.95v5.7l3.56-2.85z" stroke="#fff" stroke-opacity="0" fill="#693cc5"/><path d="M302.33 181.27c-.23 0-.43-.04-.64-.12-.67-.27-1.07-.87-1.07-1.6v-15.94c0-.92.75-1.7 1.7-1.7.46 0 .87.18 1.22.5l7.98 8c.65.66.65 1.73 0 2.4l-7.98 7.98c-.35.33-.75.5-1.22.5zm1.7-13.6v7.73l3.9-3.87zM259.26 197.23c-.28 0-.5-.04-.74-.17-.6-.28-.97-.86-.97-1.52v-12.77c0-.95.75-1.7 1.7-1.7.4 0 .76.12 1.07.38l7.97 6.37c.72.58.84 1.67.25 2.4-.08.1-.16.17-.26.25l-7.98 6.4c-.3.25-.67.36-1.06.36zm1.7-10.93v5.7l3.55-2.85z" stroke="#fff" stroke-opacity="0" fill="#693cc5"/><g><use xlink:href="#Q" transform="matrix(1,0,0,1,210,219) translate(16.924999999999997 14.4)"/><use xlink:href="#R" transform="matrix(1,0,0,1,210,219) translate(56.125 14.4)"/></g><defs><path d="M147 0H94L2-248h55l64 206c17-72 42-137 63-206h54" id="S"/><path d="M24-248c93 1 206-16 204 79-1 75-69 88-152 82V0H24v-248zm52 121c47 0 100 7 100-41 0-47-54-39-100-39v80" id="T"/><path d="M67-125c0 53 21 87 73 88 37 1 54-22 65-47l45 17C233-25 199 4 140 4 58 4 20-42 15-125 8-235 124-281 211-232c18 10 29 29 36 50l-46 12c-8-25-30-41-62-41-52 0-71 34-72 86" id="U"/><g id="a"><use transform="matrix(0.07407407407407408,0,0,0.07407407407407408,0,0)" xlink:href="#S"/><use transform="matrix(0.07407407407407408,0,0,0.07407407407407408,17.77777777777778,0)" xlink:href="#T"/><use transform="matrix(0.07407407407407408,0,0,0.07407407407407408,35.55555555555556,0)" xlink:href="#U"/></g><path d="M199 0l-22-63H83L61 0H9l90-248h61L250 0h-51zm-33-102l-36-108c-10 38-24 72-36 108h72" id="V"/><path d="M275 0h-61l-44-196L126 0H64L0-248h53L97-49l45-199h58l43 199 44-199h52" id="W"/><path d="M169-182c-1-43-94-46-97-3 18 66 151 10 154 114 3 95-165 93-204 36-6-8-10-19-12-30l50-8c3 46 112 56 116 5-17-69-150-10-154-114-4-87 153-88 188-35 5 8 8 18 10 28" id="X"/><g id="c"><use transform="matrix(0.07407407407407408,0,0,0.07407407407407408,0,0)" xlink:href="#V"/><use transform="matrix(0.07407407407407408,0,0,0.07407407407407408,17.703703703703706,0)" xlink:href="#W"/><use transform="matrix(0.07407407407407408,0,0,0.07407407407407408,42.814814814814824,0)" xlink:href="#X"/></g><path d="M25 0v-261h50V0H25" id="Y"/><path d="M110-194c64 0 96 36 96 99 0 64-35 99-97 99-61 0-95-36-95-99 0-62 34-99 96-99zm-1 164c35 0 45-28 45-65 0-40-10-65-43-65-34 0-45 26-45 65 0 36 10 65 43 65" id="Z"/><path d="M85 4C-2 5 27-109 22-190h50c7 57-23 150 33 157 60-5 35-97 40-157h50l1 190h-47c-2-12 1-28-3-38-12 25-28 42-61 42" id="aa"/><path d="M88-194c31-1 46 15 58 34l-1-101h50l1 261h-48c-2-10 0-23-3-31C134-8 116 4 84 4 32 4 16-41 15-95c0-56 19-97 73-99zm17 164c33 0 40-30 41-66 1-37-9-64-41-64s-38 30-39 65c0 43 13 65 39 65" id="ab"/><g id="d"><use transform="matrix(0.07407407407407408,0,0,0.07407407407407408,0,0)" xlink:href="#U"/><use transform="matrix(0.07407407407407408,0,0,0.07407407407407408,19.185185185185187,0)" xlink:href="#Y"/><use transform="matrix(0.07407407407407408,0,0,0.07407407407407408,26.592592592592595,0)" xlink:href="#Z"/><use transform="matrix(0.07407407407407408,0,0,0.07407407407407408,42.814814814814824,0)" xlink:href="#aa"/><use transform="matrix(0.07407407407407408,0,0,0.07407407407407408,59.03703703703705,0)" xlink:href="#ab"/></g><path d="M205 0l-28-72H64L36 0H1l101-248h38L239 0h-34zm-38-99l-47-123c-12 45-31 82-46 123h93" id="ac"/><path d="M84 4C-5 8 30-112 23-190h32v120c0 31 7 50 39 49 72-2 45-101 50-169h31l1 190h-30c-1-10 1-25-2-33-11 22-28 36-60 37" id="ad"/><path d="M59-47c-2 24 18 29 38 22v24C64 9 27 4 27-40v-127H5v-23h24l9-43h21v43h35v23H59v120" id="ae"/><path d="M100-194c62-1 85 37 85 99 1 63-27 99-86 99S16-35 15-95c0-66 28-99 85-99zM99-20c44 1 53-31 53-75 0-43-8-75-51-75s-53 32-53 75 10 74 51 75" id="af"/><g id="e"><use transform="matrix(0.06172839506172839,0,0,0.06172839506172839,0,0)" xlink:href="#ac"/><use transform="matrix(0.06172839506172839,0,0,0.06172839506172839,14.814814814814813,0)" xlink:href="#ad"/><use transform="matrix(0.06172839506172839,0,0,0.06172839506172839,27.160493827160494,0)" xlink:href="#ae"/><use transform="matrix(0.06172839506172839,0,0,0.06172839506172839,33.333333333333336,0)" xlink:href="#af"/></g><path d="M185-189c-5-48-123-54-124 2 14 75 158 14 163 119 3 78-121 87-175 55-17-10-28-26-33-46l33-7c5 56 141 63 141-1 0-78-155-14-162-118-5-82 145-84 179-34 5 7 8 16 11 25" id="ag"/><path d="M96-169c-40 0-48 33-48 73s9 75 48 75c24 0 41-14 43-38l32 2c-6 37-31 61-74 61-59 0-76-41-82-99-10-93 101-131 147-64 4 7 5 14 7 22l-32 3c-4-21-16-35-41-35" id="ah"/><path d="M141-36C126-15 110 5 73 4 37 3 15-17 15-53c-1-64 63-63 125-63 3-35-9-54-41-54-24 1-41 7-42 31l-33-3c5-37 33-52 76-52 45 0 72 20 72 64v82c-1 20 7 32 28 27v20c-31 9-61-2-59-35zM48-53c0 20 12 33 32 33 41-3 63-29 60-74-43 2-92-5-92 41" id="ai"/><path d="M24 0v-261h32V0H24" id="aj"/><path d="M24-231v-30h32v30H24zM24 0v-190h32V0H24" id="ak"/><path d="M117-194c89-4 53 116 60 194h-32v-121c0-31-8-49-39-48C34-167 62-67 57 0H25l-1-190h30c1 10-1 24 2 32 11-22 29-35 61-36" id="al"/><path d="M177-190C167-65 218 103 67 71c-23-6-38-20-44-43l32-5c15 47 100 32 89-28v-30C133-14 115 1 83 1 29 1 15-40 15-95c0-56 16-97 71-98 29-1 48 16 59 35 1-10 0-23 2-32h30zM94-22c36 0 50-32 50-73 0-42-14-75-50-75-39 0-46 34-46 75s6 73 46 73" id="am"/><g id="f"><use transform="matrix(0.06172839506172839,0,0,0.06172839506172839,0,0)" xlink:href="#ag"/><use transform="matrix(0.06172839506172839,0,0,0.06172839506172839,14.814814814814813,0)" xlink:href="#ah"/><use transform="matrix(0.06172839506172839,0,0,0.06172839506172839,25.925925925925924,0)" xlink:href="#ai"/><use transform="matrix(0.06172839506172839,0,0,0.06172839506172839,38.2716049382716,0)" xlink:href="#aj"/><use transform="matrix(0.06172839506172839,0,0,0.06172839506172839,43.148148148148145,0)" xlink:href="#ak"/><use transform="matrix(0.06172839506172839,0,0,0.06172839506172839,48.02469135802469,0)" xlink:href="#al"/><use transform="matrix(0.06172839506172839,0,0,0.06172839506172839,60.37037037037037,0)" xlink:href="#am"/></g><path d="M114-163C36-179 61-72 57 0H25l-1-190h30c1 12-1 29 2 39 6-27 23-49 58-41v29" id="an"/><path d="M115-194c55 1 70 41 70 98S169 2 115 4C84 4 66-9 55-30l1 105H24l-1-265h31l2 30c10-21 28-34 59-34zm-8 174c40 0 45-34 45-75s-6-73-45-74c-42 0-51 32-51 76 0 43 10 73 51 73" id="ao"/><g id="g"><use transform="matrix(0.06172839506172839,0,0,0.06172839506172839,0,0)" xlink:href="#am"/><use transform="matrix(0.06172839506172839,0,0,0.06172839506172839,12.345679012345679,0)" xlink:href="#an"/><use transform="matrix(0.06172839506172839,0,0,0.06172839506172839,19.691358024691358,0)" xlink:href="#af"/><use transform="matrix(0.06172839506172839,0,0,0.06172839506172839,32.03703703703704,0)" xlink:href="#ad"/><use transform="matrix(0.06172839506172839,0,0,0.06172839506172839,44.382716049382715,0)" xlink:href="#ao"/></g><path d="M108 0H70L1-190h34L89-25l56-165h34" id="ap"/><path d="M115-194c53 0 69 39 70 98 0 66-23 100-70 100C84 3 66-7 56-30L54 0H23l1-261h32v101c10-23 28-34 59-34zm-8 174c40 0 45-34 45-75 0-40-5-75-45-74-42 0-51 32-51 76 0 43 10 73 51 73" id="aq"/><path d="M179-190L93 31C79 59 56 82 12 73V49c39 6 53-20 64-50L1-190h34L92-34l54-156h33" id="ar"/><g id="h"><use transform="matrix(0.06172839506172839,0,0,0.06172839506172839,0,0)" xlink:href="#ac"/><use transform="matrix(0.06172839506172839,0,0,0.06172839506172839,14.382716049382715,0)" xlink:href="#ap"/><use transform="matrix(0.06172839506172839,0,0,0.06172839506172839,25.493827160493826,0)" xlink:href="#ai"/><use transform="matrix(0.06172839506172839,0,0,0.06172839506172839,37.839506172839506,0)" xlink:href="#ak"/><use transform="matrix(0.06172839506172839,0,0,0.06172839506172839,42.71604938271605,0)" xlink:href="#aj"/><use transform="matrix(0.06172839506172839,0,0,0.06172839506172839,47.592592592592595,0)" xlink:href="#ai"/><use transform="matrix(0.06172839506172839,0,0,0.06172839506172839,59.93827160493827,0)" xlink:href="#aq"/><use transform="matrix(0.06172839506172839,0,0,0.06172839506172839,72.28395061728395,0)" xlink:href="#ak"/><use transform="matrix(0.06172839506172839,0,0,0.06172839506172839,77.1604938271605,0)" xlink:href="#aj"/><use transform="matrix(0.06172839506172839,0,0,0.06172839506172839,82.03703703703704,0)" xlink:href="#ak"/><use transform="matrix(0.06172839506172839,0,0,0.06172839506172839,86.91358024691358,0)" xlink:href="#ae"/><use transform="matrix(0.06172839506172839,0,0,0.06172839506172839,93.08641975308642,0)" xlink:href="#ar"/></g><path d="M209 0H11v-25l151-195H24v-28h176v25L50-27h159V0" id="as"/><path d="M100-194c63 0 86 42 84 106H49c0 40 14 67 53 68 26 1 43-12 49-29l28 8c-11 28-37 45-77 45C44 4 14-33 15-96c1-61 26-98 85-98zm52 81c6-60-76-77-97-28-3 7-6 17-6 28h103" id="at"/><g id="i"><use transform="matrix(0.06172839506172839,0,0,0.06172839506172839,0,0)" xlink:href="#as"/><use transform="matrix(0.06172839506172839,0,0,0.06172839506172839,13.518518518518517,0)" xlink:href="#af"/><use transform="matrix(0.06172839506172839,0,0,0.06172839506172839,25.864197530864196,0)" xlink:href="#al"/><use transform="matrix(0.06172839506172839,0,0,0.06172839506172839,38.20987654320987,0)" xlink:href="#at"/></g><path d="M27 0v-27h64v-190l-56 39v-29l58-41h29v221h61V0H27" id="au"/><use transform="matrix(0.06172839506172839,0,0,0.06172839506172839,0,0)" xlink:href="#au" id="j"/><path fill="#248814" d="M30-248c87 1 191-15 191 75 0 78-77 80-158 76V0H30v-248zm33 125c57 0 124 11 124-50 0-59-68-47-124-48v98" id="av"/><path fill="#248814" d="M84 4C-5 8 30-112 23-190h32v120c0 31 7 50 39 49 72-2 45-101 50-169h31l1 190h-30c-1-10 1-25-2-33-11 22-28 36-60 37" id="aw"/><path fill="#248814" d="M115-194c53 0 69 39 70 98 0 66-23 100-70 100C84 3 66-7 56-30L54 0H23l1-261h32v101c10-23 28-34 59-34zm-8 174c40 0 45-34 45-75 0-40-5-75-45-74-42 0-51 32-51 76 0 43 10 73 51 73" id="ax"/><path fill="#248814" d="M24 0v-261h32V0H24" id="ay"/><path fill="#248814" d="M24-231v-30h32v30H24zM24 0v-190h32V0H24" id="az"/><path fill="#248814" d="M96-169c-40 0-48 33-48 73s9 75 48 75c24 0 41-14 43-38l32 2c-6 37-31 61-74 61-59 0-76-41-82-99-10-93 101-131 147-64 4 7 5 14 7 22l-32 3c-4-21-16-35-41-35" id="aA"/><g id="k"><use transform="matrix(0.05,0,0,0.05,0,0)" xlink:href="#av"/><use transform="matrix(0.05,0,0,0.05,12,0)" xlink:href="#aw"/><use transform="matrix(0.05,0,0,0.05,22,0)" xlink:href="#ax"/><use transform="matrix(0.05,0,0,0.05,32,0)" xlink:href="#ay"/><use transform="matrix(0.05,0,0,0.05,35.95,0)" xlink:href="#az"/><use transform="matrix(0.05,0,0,0.05,39.900000000000006,0)" xlink:href="#aA"/></g><path fill="#248814" d="M185-189c-5-48-123-54-124 2 14 75 158 14 163 119 3 78-121 87-175 55-17-10-28-26-33-46l33-7c5 56 141 63 141-1 0-78-155-14-162-118-5-82 145-84 179-34 5 7 8 16 11 25" id="aB"/><path fill="#248814" d="M117-194c89-4 53 116 60 194h-32v-121c0-31-8-49-39-48C34-167 62-67 57 0H25l-1-190h30c1 10-1 24 2 32 11-22 29-35 61-36" id="aC"/><path fill="#248814" d="M100-194c63 0 86 42 84 106H49c0 40 14 67 53 68 26 1 43-12 49-29l28 8c-11 28-37 45-77 45C44 4 14-33 15-96c1-61 26-98 85-98zm52 81c6-60-76-77-97-28-3 7-6 17-6 28h103" id="aD"/><path fill="#248814" d="M59-47c-2 24 18 29 38 22v24C64 9 27 4 27-40v-127H5v-23h24l9-43h21v43h35v23H59v120" id="aE"/><g id="l"><use transform="matrix(0.05,0,0,0.05,0,0)" xlink:href="#aB"/><use transform="matrix(0.05,0,0,0.05,12,0)" xlink:href="#aw"/><use transform="matrix(0.05,0,0,0.05,22,0)" xlink:href="#ax"/><use transform="matrix(0.05,0,0,0.05,32,0)" xlink:href="#aC"/><use transform="matrix(0.05,0,0,0.05,42,0)" xlink:href="#aD"/><use transform="matrix(0.05,0,0,0.05,52,0)" xlink:href="#aE"/></g><path d="M30-248c87 1 191-15 191 75 0 78-77 80-158 76V0H30v-248zm33 125c57 0 124 11 124-50 0-59-68-47-124-48v98" id="aF"/><g id="m"><use transform="matrix(0.06172839506172839,0,0,0.06172839506172839,0,0)" xlink:href="#aF"/><use transform="matrix(0.06172839506172839,0,0,0.06172839506172839,14.814814814814813,0)" xlink:href="#an"/><use transform="matrix(0.06172839506172839,0,0,0.06172839506172839,22.160493827160494,0)" xlink:href="#ak"/><use transform="matrix(0.06172839506172839,0,0,0.06172839506172839,27.037037037037038,0)" xlink:href="#ap"/><use transform="matrix(0.06172839506172839,0,0,0.06172839506172839,38.14814814814815,0)" xlink:href="#ai"/><use transform="matrix(0.06172839506172839,0,0,0.06172839506172839,50.49382716049383,0)" xlink:href="#ae"/><use transform="matrix(0.06172839506172839,0,0,0.06172839506172839,56.66666666666667,0)" xlink:href="#at"/></g><g id="n"><use transform="matrix(0.06172839506172839,0,0,0.06172839506172839,0,0)" xlink:href="#ag"/><use transform="matrix(0.06172839506172839,0,0,0.06172839506172839,14.814814814814813,0)" xlink:href="#ad"/><use transform="matrix(0.06172839506172839,0,0,0.06172839506172839,27.160493827160494,0)" xlink:href="#aq"/><use transform="matrix(0.06172839506172839,0,0,0.06172839506172839,39.50617283950617,0)" xlink:href="#al"/><use transform="matrix(0.06172839506172839,0,0,0.06172839506172839,51.85185185185185,0)" xlink:href="#at"/><use transform="matrix(0.06172839506172839,0,0,0.06172839506172839,64.19753086419753,0)" xlink:href="#ae"/></g><path d="M101-251c82-7 93 87 43 132L82-64C71-53 59-42 53-27h129V0H18c2-99 128-94 128-182 0-28-16-43-45-43s-46 15-49 41l-32-3c6-41 34-60 81-64" id="aG"/><use transform="matrix(0.06172839506172839,0,0,0.06172839506172839,0,0)" xlink:href="#aG" id="o"/><path d="M33 0v-248h34V0H33" id="aH"/><g id="p"><use transform="matrix(0.05555555555555555,0,0,0.05555555555555555,0,0)" xlink:href="#aH"/><use transform="matrix(0.05555555555555555,0,0,0.05555555555555555,5.555555555555555,0)" xlink:href="#al"/><use transform="matrix(0.05555555555555555,0,0,0.05555555555555555,16.666666666666664,0)" xlink:href="#ae"/><use transform="matrix(0.05555555555555555,0,0,0.05555555555555555,22.22222222222222,0)" xlink:href="#at"/><use transform="matrix(0.05555555555555555,0,0,0.05555555555555555,33.33333333333333,0)" xlink:href="#an"/><use transform="matrix(0.05555555555555555,0,0,0.05555555555555555,39.94444444444444,0)" xlink:href="#al"/><use transform="matrix(0.05555555555555555,0,0,0.05555555555555555,51.05555555555556,0)" xlink:href="#at"/><use transform="matrix(0.05555555555555555,0,0,0.05555555555555555,62.16666666666668,0)" xlink:href="#ae"/></g><path d="M143 4C61 4 22-44 18-125c-5-107 100-154 193-111 17 8 29 25 37 43l-32 9c-13-25-37-40-76-40-61 0-88 39-88 99 0 61 29 100 91 101 35 0 62-11 79-27v-45h-74v-28h105v86C228-13 192 4 143 4" id="aI"/><path d="M206 0h-36l-40-164L89 0H53L-1-190h32L70-26l43-164h34l41 164 42-164h31" id="aJ"/><g id="q"><use transform="matrix(0.05555555555555555,0,0,0.05555555555555555,0,0)" xlink:href="#aI"/><use transform="matrix(0.05555555555555555,0,0,0.05555555555555555,15.555555555555555,0)" xlink:href="#ai"/><use transform="matrix(0.05555555555555555,0,0,0.05555555555555555,26.666666666666664,0)" xlink:href="#ae"/><use transform="matrix(0.05555555555555555,0,0,0.05555555555555555,32.22222222222222,0)" xlink:href="#at"/><use transform="matrix(0.05555555555555555,0,0,0.05555555555555555,43.33333333333333,0)" xlink:href="#aJ"/><use transform="matrix(0.05555555555555555,0,0,0.05555555555555555,57.72222222222222,0)" xlink:href="#ai"/><use transform="matrix(0.05555555555555555,0,0,0.05555555555555555,68.83333333333333,0)" xlink:href="#ar"/></g><path d="M63-220v92h138v28H63V0H30v-248h175v28H63" id="aK"/><path d="M85-194c31 0 48 13 60 33l-1-100h32l1 261h-30c-2-10 0-23-3-31C134-8 116 4 85 4 32 4 16-35 15-94c0-66 23-100 70-100zm9 24c-40 0-46 34-46 75 0 40 6 74 45 74 42 0 51-32 51-76 0-42-9-74-50-73" id="aL"/><g id="r"><use transform="matrix(0.05555555555555555,0,0,0.05555555555555555,0,0)" xlink:href="#aK"/><use transform="matrix(0.05555555555555555,0,0,0.05555555555555555,12.166666666666666,0)" xlink:href="#an"/><use transform="matrix(0.05555555555555555,0,0,0.05555555555555555,18.77777777777778,0)" xlink:href="#af"/><use transform="matrix(0.05555555555555555,0,0,0.05555555555555555,29.888888888888886,0)" xlink:href="#al"/><use transform="matrix(0.05555555555555555,0,0,0.05555555555555555,41,0)" xlink:href="#ae"/><use transform="matrix(0.05555555555555555,0,0,0.05555555555555555,46.55555555555556,0)" xlink:href="#at"/><use transform="matrix(0.05555555555555555,0,0,0.05555555555555555,57.66666666666668,0)" xlink:href="#al"/><use transform="matrix(0.05555555555555555,0,0,0.05555555555555555,68.77777777777779,0)" xlink:href="#aL"/></g><path d="M30 0v-248h187v28H63v79h144v27H63v87h162V0H30" id="aM"/><path d="M212-179c-10-28-35-45-73-45-59 0-87 40-87 99 0 60 29 101 89 101 43 0 62-24 78-52l27 14C228-24 195 4 139 4 59 4 22-46 18-125c-6-104 99-153 187-111 19 9 31 26 39 46" id="aN"/><g id="s"><use transform="matrix(0.05555555555555555,0,0,0.05555555555555555,0,0)" xlink:href="#aM"/><use transform="matrix(0.05555555555555555,0,0,0.05555555555555555,13.333333333333332,0)" xlink:href="#aN"/><use transform="matrix(0.05555555555555555,0,0,0.05555555555555555,27.72222222222222,0)" xlink:href="#aG"/></g><path d="M160-131c35 5 61 23 61 61C221 17 115-2 30 0v-248c76 3 177-17 177 60 0 33-19 50-47 57zm-97-11c50-1 110 9 110-42 0-47-63-36-110-37v79zm0 115c55-2 124 14 124-45 0-56-70-42-124-44v89" id="aO"/><path d="M143 0L79-87 56-68V0H24v-261h32v163l83-92h37l-77 82L181 0h-38" id="aP"/><g id="t"><use transform="matrix(0.05555555555555555,0,0,0.05555555555555555,0,0)" xlink:href="#aO"/><use transform="matrix(0.05555555555555555,0,0,0.05555555555555555,13.333333333333332,0)" xlink:href="#ai"/><use transform="matrix(0.05555555555555555,0,0,0.05555555555555555,24.444444444444443,0)" xlink:href="#ah"/><use transform="matrix(0.05555555555555555,0,0,0.05555555555555555,34.44444444444444,0)" xlink:href="#aP"/><use transform="matrix(0.05555555555555555,0,0,0.05555555555555555,44.44444444444444,0)" xlink:href="#at"/><use transform="matrix(0.05555555555555555,0,0,0.05555555555555555,55.55555555555556,0)" xlink:href="#al"/><use transform="matrix(0.05555555555555555,0,0,0.05555555555555555,66.66666666666667,0)" xlink:href="#aL"/></g><path d="M210-169c-67 3-38 105-44 169h-31v-121c0-29-5-50-35-48C34-165 62-65 56 0H25l-1-190h30c1 10-1 24 2 32 10-44 99-50 107 0 11-21 27-35 58-36 85-2 47 119 55 194h-31v-121c0-29-5-49-35-48" id="aQ"/><path d="M9 0v-24l116-142H16v-24h144v24L44-24h123V0H9" id="aR"/><g id="u"><use transform="matrix(0.05555555555555555,0,0,0.05555555555555555,0,0)" xlink:href="#ac"/><use transform="matrix(0.05555555555555555,0,0,0.05555555555555555,13.333333333333332,0)" xlink:href="#aQ"/><use transform="matrix(0.05555555555555555,0,0,0.05555555555555555,29.944444444444443,0)" xlink:href="#ai"/><use transform="matrix(0.05555555555555555,0,0,0.05555555555555555,41.05555555555556,0)" xlink:href="#aR"/><use transform="matrix(0.05555555555555555,0,0,0.05555555555555555,51.05555555555556,0)" xlink:href="#af"/><use transform="matrix(0.05555555555555555,0,0,0.05555555555555555,62.16666666666668,0)" xlink:href="#al"/></g><path d="M233-177c-1 41-23 64-60 70L243 0h-38l-65-103H63V0H30v-248c88 3 205-21 203 71zM63-129c60-2 137 13 137-47 0-61-80-42-137-45v92" id="aS"/><path d="M30-248c118-7 216 8 213 122C240-48 200 0 122 0H30v-248zM63-27c89 8 146-16 146-99s-60-101-146-95v194" id="aT"/><g id="v"><use transform="matrix(0.05555555555555555,0,0,0.05555555555555555,0,0)" xlink:href="#aS"/><use transform="matrix(0.05555555555555555,0,0,0.05555555555555555,14.388888888888888,0)" xlink:href="#aT"/><use transform="matrix(0.05555555555555555,0,0,0.05555555555555555,28.777777777777775,0)" xlink:href="#ag"/></g><g id="w"><use transform="matrix(0.05555555555555555,0,0,0.05555555555555555,0,0)" xlink:href="#ac"/><use transform="matrix(0.05555555555555555,0,0,0.05555555555555555,13.333333333333332,0)" xlink:href="#ad"/><use transform="matrix(0.05555555555555555,0,0,0.05555555555555555,24.444444444444443,0)" xlink:href="#ae"/><use transform="matrix(0.05555555555555555,0,0,0.05555555555555555,30,0)" xlink:href="#af"/></g><g id="x"><use transform="matrix(0.05555555555555555,0,0,0.05555555555555555,0,0)" xlink:href="#ag"/><use transform="matrix(0.05555555555555555,0,0,0.05555555555555555,13.333333333333332,0)" xlink:href="#ah"/><use transform="matrix(0.05555555555555555,0,0,0.05555555555555555,23.333333333333332,0)" xlink:href="#ai"/><use transform="matrix(0.05555555555555555,0,0,0.05555555555555555,34.44444444444444,0)" xlink:href="#aj"/><use transform="matrix(0.05555555555555555,0,0,0.05555555555555555,38.83333333333333,0)" xlink:href="#ak"/><use transform="matrix(0.05555555555555555,0,0,0.05555555555555555,43.222222222222214,0)" xlink:href="#al"/><use transform="matrix(0.05555555555555555,0,0,0.05555555555555555,54.33333333333333,0)" xlink:href="#am"/></g><g id="y"><use transform="matrix(0.05555555555555555,0,0,0.05555555555555555,0,0)" xlink:href="#ac"/><use transform="matrix(0.05555555555555555,0,0,0.05555555555555555,13.333333333333332,0)" xlink:href="#aF"/><use transform="matrix(0.05555555555555555,0,0,0.05555555555555555,26.666666666666664,0)" xlink:href="#aH"/></g><path d="M190 0L58-211 59 0H30v-248h39L202-35l-2-213h31V0h-41" id="aU"/><g id="z"><use transform="matrix(0.05555555555555555,0,0,0.05555555555555555,0,0)" xlink:href="#ag"/><use transform="matrix(0.05555555555555555,0,0,0.05555555555555555,13.333333333333332,0)" xlink:href="#aU"/><use transform="matrix(0.05555555555555555,0,0,0.05555555555555555,27.72222222222222,0)" xlink:href="#ag"/></g><path d="M30 0v-248h33v221h125V0H30" id="aV"/><g id="A"><use transform="matrix(0.05555555555555555,0,0,0.05555555555555555,0,0)" xlink:href="#aV"/><use transform="matrix(0.05555555555555555,0,0,0.05555555555555555,11.11111111111111,0)" xlink:href="#ai"/><use transform="matrix(0.05555555555555555,0,0,0.05555555555555555,22.22222222222222,0)" xlink:href="#aQ"/><use transform="matrix(0.05555555555555555,0,0,0.05555555555555555,38.83333333333333,0)" xlink:href="#aq"/><use transform="matrix(0.05555555555555555,0,0,0.05555555555555555,49.94444444444444,0)" xlink:href="#aL"/><use transform="matrix(0.05555555555555555,0,0,0.05555555555555555,61.05555555555555,0)" xlink:href="#ai"/></g><path d="M101-234c-31-9-42 10-38 44h38v23H63V0H32v-167H5v-23h27c-7-52 17-82 69-68v24" id="aW"/><g id="B"><use transform="matrix(0.05555555555555555,0,0,0.05555555555555555,0,0)" xlink:href="#aW"/><use transform="matrix(0.05555555555555555,0,0,0.05555555555555555,5.555555555555555,0)" xlink:href="#ad"/><use transform="matrix(0.05555555555555555,0,0,0.05555555555555555,16.666666666666664,0)" xlink:href="#al"/><use transform="matrix(0.05555555555555555,0,0,0.05555555555555555,27.777777777777775,0)" xlink:href="#ah"/><use transform="matrix(0.05555555555555555,0,0,0.05555555555555555,37.77777777777777,0)" xlink:href="#ae"/><use transform="matrix(0.05555555555555555,0,0,0.05555555555555555,43.33333333333333,0)" xlink:href="#ak"/><use transform="matrix(0.05555555555555555,0,0,0.05555555555555555,47.722222222222214,0)" xlink:href="#af"/><use transform="matrix(0.05555555555555555,0,0,0.05555555555555555,58.83333333333333,0)" xlink:href="#al"/></g><g id="C"><use transform="matrix(0.05555555555555555,0,0,0.05555555555555555,0,0)" xlink:href="#ag"/><use transform="matrix(0.05555555555555555,0,0,0.05555555555555555,13.333333333333332,0)" xlink:href="#aU"/><use transform="matrix(0.05555555555555555,0,0,0.05555555555555555,27.72222222222222,0)" xlink:href="#ag"/></g><path d="M266 0h-40l-56-210L115 0H75L2-248h35L96-30l15-64 43-154h32l59 218 59-218h35" id="aX"/><g id="D"><use transform="matrix(0.05555555555555555,0,0,0.05555555555555555,0,0)" xlink:href="#ac"/><use transform="matrix(0.05555555555555555,0,0,0.05555555555555555,12.61111111111111,0)" xlink:href="#aX"/><use transform="matrix(0.05555555555555555,0,0,0.05555555555555555,31.444444444444443,0)" xlink:href="#ag"/></g><path d="M135-143c-3-34-86-38-87 0 15 53 115 12 119 90S17 21 10-45l28-5c4 36 97 45 98 0-10-56-113-15-118-90-4-57 82-63 122-42 12 7 21 19 24 35" id="aY"/><g id="E"><use transform="matrix(0.05555555555555555,0,0,0.05555555555555555,0,0)" xlink:href="#ag"/><use transform="matrix(0.05555555555555555,0,0,0.05555555555555555,13.333333333333332,0)" xlink:href="#at"/><use transform="matrix(0.05555555555555555,0,0,0.05555555555555555,24.444444444444443,0)" xlink:href="#ah"/><use transform="matrix(0.05555555555555555,0,0,0.05555555555555555,34.44444444444444,0)" xlink:href="#an"/><use transform="matrix(0.05555555555555555,0,0,0.05555555555555555,41.05555555555556,0)" xlink:href="#at"/><use transform="matrix(0.05555555555555555,0,0,0.05555555555555555,52.16666666666667,0)" xlink:href="#ae"/><use transform="matrix(0.05555555555555555,0,0,0.05555555555555555,57.72222222222223,0)" xlink:href="#aY"/></g><path d="M240 0l2-218c-23 76-54 145-80 218h-23L58-218 59 0H30v-248h44l77 211c21-75 51-140 76-211h43V0h-30" id="aZ"/><g id="F"><use transform="matrix(0.05555555555555555,0,0,0.05555555555555555,0,0)" xlink:href="#aZ"/><use transform="matrix(0.05555555555555555,0,0,0.05555555555555555,16.61111111111111,0)" xlink:href="#ai"/><use transform="matrix(0.05555555555555555,0,0,0.05555555555555555,27.72222222222222,0)" xlink:href="#al"/><use transform="matrix(0.05555555555555555,0,0,0.05555555555555555,38.83333333333333,0)" xlink:href="#ai"/><use transform="matrix(0.05555555555555555,0,0,0.05555555555555555,49.94444444444444,0)" xlink:href="#am"/><use transform="matrix(0.05555555555555555,0,0,0.05555555555555555,61.05555555555555,0)" xlink:href="#at"/><use transform="matrix(0.05555555555555555,0,0,0.05555555555555555,72.16666666666667,0)" xlink:href="#an"/></g><g id="G"><use transform="matrix(0.06172839506172839,0,0,0.06172839506172839,0,0)" xlink:href="#aF"/><use transform="matrix(0.06172839506172839,0,0,0.06172839506172839,14.814814814814813,0)" xlink:href="#an"/><use transform="matrix(0.06172839506172839,0,0,0.06172839506172839,22.160493827160494,0)" xlink:href="#ak"/><use transform="matrix(0.06172839506172839,0,0,0.06172839506172839,27.037037037037038,0)" xlink:href="#aQ"/><use transform="matrix(0.06172839506172839,0,0,0.06172839506172839,45.49382716049382,0)" xlink:href="#ai"/><use transform="matrix(0.06172839506172839,0,0,0.06172839506172839,57.8395061728395,0)" xlink:href="#an"/><use transform="matrix(0.06172839506172839,0,0,0.06172839506172839,65.18518518518518,0)" xlink:href="#ar"/></g><g id="H"><use transform="matrix(0.06172839506172839,0,0,0.06172839506172839,0,0)" xlink:href="#ag"/><use transform="matrix(0.06172839506172839,0,0,0.06172839506172839,14.814814814814813,0)" xlink:href="#at"/><use transform="matrix(0.06172839506172839,0,0,0.06172839506172839,27.160493827160494,0)" xlink:href="#ah"/><use transform="matrix(0.06172839506172839,0,0,0.06172839506172839,38.27160493827161,0)" xlink:href="#af"/><use transform="matrix(0.06172839506172839,0,0,0.06172839506172839,50.617283950617285,0)" xlink:href="#al"/><use transform="matrix(0.06172839506172839,0,0,0.06172839506172839,62.96296296296296,0)" xlink:href="#aL"/><use transform="matrix(0.06172839506172839,0,0,0.06172839506172839,75.30864197530865,0)" xlink:href="#ai"/><use transform="matrix(0.06172839506172839,0,0,0.06172839506172839,87.65432098765433,0)" xlink:href="#an"/><use transform="matrix(0.06172839506172839,0,0,0.06172839506172839,95.00000000000001,0)" xlink:href="#ar"/></g><g id="I"><use transform="matrix(0.05555555555555555,0,0,0.05555555555555555,0,0)" xlink:href="#an"/><use transform="matrix(0.05555555555555555,0,0,0.05555555555555555,6.611111111111111,0)" xlink:href="#af"/><use transform="matrix(0.05555555555555555,0,0,0.05555555555555555,17.72222222222222,0)" xlink:href="#ad"/><use transform="matrix(0.05555555555555555,0,0,0.05555555555555555,28.833333333333332,0)" xlink:href="#ae"/><use transform="matrix(0.05555555555555555,0,0,0.05555555555555555,34.388888888888886,0)" xlink:href="#at"/></g><g id="J"><use transform="matrix(0.05555555555555555,0,0,0.05555555555555555,0,0)" xlink:href="#ae"/><use transform="matrix(0.05555555555555555,0,0,0.05555555555555555,5.555555555555555,0)" xlink:href="#ai"/><use transform="matrix(0.05555555555555555,0,0,0.05555555555555555,16.666666666666664,0)" xlink:href="#aq"/><use transform="matrix(0.05555555555555555,0,0,0.05555555555555555,27.777777777777775,0)" xlink:href="#aj"/><use transform="matrix(0.05555555555555555,0,0,0.05555555555555555,32.166666666666664,0)" xlink:href="#at"/></g><g id="K"><use transform="matrix(0.05,0,0,0.05,0,0)" xlink:href="#ac"/><use transform="matrix(0.05,0,0,0.05,12,0)" xlink:href="#ao"/><use transform="matrix(0.05,0,0,0.05,22,0)" xlink:href="#ao"/><use transform="matrix(0.05,0,0,0.05,32,0)" xlink:href="#aj"/><use transform="matrix(0.05,0,0,0.05,35.95,0)" xlink:href="#ak"/><use transform="matrix(0.05,0,0,0.05,39.900000000000006,0)" xlink:href="#ah"/><use transform="matrix(0.05,0,0,0.05,48.900000000000006,0)" xlink:href="#ai"/><use transform="matrix(0.05,0,0,0.05,58.900000000000006,0)" xlink:href="#ae"/><use transform="matrix(0.05,0,0,0.05,63.900000000000006,0)" xlink:href="#ak"/><use transform="matrix(0.05,0,0,0.05,67.85000000000001,0)" xlink:href="#af"/><use transform="matrix(0.05,0,0,0.05,77.85000000000001,0)" xlink:href="#al"/></g><g id="L"><use transform="matrix(0.05,0,0,0.05,0,0)" xlink:href="#aV"/><use transform="matrix(0.05,0,0,0.05,10,0)" xlink:href="#af"/><use transform="matrix(0.05,0,0,0.05,20,0)" xlink:href="#ai"/><use transform="matrix(0.05,0,0,0.05,30,0)" xlink:href="#aL"/></g><g id="M"><use transform="matrix(0.05,0,0,0.05,0,0)" xlink:href="#aO"/><use transform="matrix(0.05,0,0,0.05,12,0)" xlink:href="#ai"/><use transform="matrix(0.05,0,0,0.05,22,0)" xlink:href="#aj"/><use transform="matrix(0.05,0,0,0.05,25.950000000000003,0)" xlink:href="#ai"/><use transform="matrix(0.05,0,0,0.05,35.95,0)" xlink:href="#al"/><use transform="matrix(0.05,0,0,0.05,45.95,0)" xlink:href="#ah"/><use transform="matrix(0.05,0,0,0.05,54.95,0)" xlink:href="#at"/><use transform="matrix(0.05,0,0,0.05,64.95,0)" xlink:href="#an"/></g><g id="N"><use transform="matrix(0.05,0,0,0.05,0,0)" xlink:href="#aM"/><use transform="matrix(0.05,0,0,0.05,12,0)" xlink:href="#aQ"/><use transform="matrix(0.05,0,0,0.05,26.950000000000003,0)" xlink:href="#ai"/><use transform="matrix(0.05,0,0,0.05,36.95,0)" xlink:href="#ak"/><use transform="matrix(0.05,0,0,0.05,40.900000000000006,0)" xlink:href="#aj"/></g><g id="O"><use transform="matrix(0.05,0,0,0.05,0,0)" xlink:href="#ac"/><use transform="matrix(0.05,0,0,0.05,12,0)" xlink:href="#aQ"/><use transform="matrix(0.05,0,0,0.05,26.950000000000003,0)" xlink:href="#ai"/><use transform="matrix(0.05,0,0,0.05,36.95,0)" xlink:href="#aR"/><use transform="matrix(0.05,0,0,0.05,45.95,0)" xlink:href="#af"/><use transform="matrix(0.05,0,0,0.05,55.95,0)" xlink:href="#al"/></g><path d="M106-169C34-169 62-67 57 0H25v-261h32l-1 103c12-21 28-36 61-36 89 0 53 116 60 194h-32v-121c2-32-8-49-39-48" id="ba"/><g id="P"><use transform="matrix(0.05,0,0,0.05,0,0)" xlink:href="#aN"/><use transform="matrix(0.05,0,0,0.05,12.950000000000001,0)" xlink:href="#aj"/><use transform="matrix(0.05,0,0,0.05,16.900000000000002,0)" xlink:href="#af"/><use transform="matrix(0.05,0,0,0.05,26.900000000000002,0)" xlink:href="#ad"/><use transform="matrix(0.05,0,0,0.05,36.900000000000006,0)" xlink:href="#aL"/><use transform="matrix(0.05,0,0,0.05,46.900000000000006,0)" xlink:href="#aX"/><use transform="matrix(0.05,0,0,0.05,63.2,0)" xlink:href="#ai"/><use transform="matrix(0.05,0,0,0.05,73.2,0)" xlink:href="#ae"/><use transform="matrix(0.05,0,0,0.05,78.2,0)" xlink:href="#ah"/><use transform="matrix(0.05,0,0,0.05,87.2,0)" xlink:href="#ba"/></g><path d="M127-220V0H93v-220H8v-28h204v28h-85" id="bb"/><g id="Q"><use transform="matrix(0.05,0,0,0.05,0,0)" xlink:href="#aU"/><use transform="matrix(0.05,0,0,0.05,12.950000000000001,0)" xlink:href="#ac"/><use transform="matrix(0.05,0,0,0.05,23.6,0)" xlink:href="#bb"/></g><g id="R"><use transform="matrix(0.05,0,0,0.05,0,0)" xlink:href="#am"/><use transform="matrix(0.05,0,0,0.05,10,0)" xlink:href="#ai"/><use transform="matrix(0.05,0,0,0.05,20,0)" xlink:href="#ae"/><use transform="matrix(0.05,0,0,0.05,25,0)" xlink:href="#at"/><use transform="matrix(0.05,0,0,0.05,35,0)" xlink:href="#aJ"/><use transform="matrix(0.05,0,0,0.05,47.95,0)" xlink:href="#ai"/><use transform="matrix(0.05,0,0,0.05,57.95,0)" xlink:href="#ar"/></g></defs></g></svg>